<svg width="575" height="548" viewBox="0 0 575 548" fill="none" xmlns="http://www.w3.org/2000/svg">
<g clip-path="url(#clip0_3_431)">
<path d="M153.839 456.822C154.08 456.568 154.374 456.371 154.7 456.244C155.027 456.117 155.376 456.063 155.726 456.086C156.075 456.11 156.415 456.21 156.722 456.379C157.028 456.548 157.294 456.783 157.501 457.066L162.816 455.776L164.39 458.825L156.858 460.542C156.361 460.858 155.765 460.98 155.184 460.884C154.602 460.789 154.075 460.483 153.703 460.025C153.331 459.566 153.139 458.987 153.164 458.397C153.189 457.806 153.429 457.246 153.839 456.822Z" fill="#FFB8B8"/>
<path d="M160.946 460.709C160.546 460.469 160.251 460.086 160.123 459.636L159.218 456.464C159.135 456.173 159.124 455.867 159.188 455.572C159.251 455.277 159.386 455.002 159.581 454.772L166.772 446.278L170.471 439.101C170.846 438.376 171.483 437.821 172.252 437.55C173.021 437.279 173.865 437.312 174.611 437.642C175 437.815 175.35 438.063 175.642 438.372C175.935 438.682 176.163 439.047 176.313 439.445C176.464 439.844 176.534 440.268 176.519 440.694C176.505 441.119 176.406 441.538 176.229 441.925L172.072 450.994L168.867 456.3C167.846 457.98 166.318 459.29 164.504 460.04L162.578 460.832C162.339 460.93 162.083 460.976 161.826 460.968C161.569 460.959 161.316 460.897 161.085 460.784C161.037 460.761 160.991 460.736 160.946 460.709Z" fill="#6C63FF"/>
<path d="M211.261 502.613L208.642 503.901L202.428 494.377L206.293 492.475L211.261 502.613Z" fill="#FFB8B8"/>
<path d="M206.403 504.07L211.454 501.586L213.018 504.778L204.787 508.826C204.582 508.407 204.461 507.951 204.431 507.486C204.401 507.02 204.463 506.553 204.613 506.111C204.763 505.67 204.998 505.262 205.305 504.912C205.613 504.562 205.986 504.276 206.403 504.07Z" fill="#2F2E41"/>
<path d="M186.699 509.932L183.846 510.545L180.118 499.796L184.328 498.892L186.699 509.932Z" fill="#FFB8B8"/>
<path d="M181.633 510.164L187.135 508.982L187.882 512.458L178.915 514.384C178.817 513.928 178.81 513.457 178.893 512.997C178.977 512.538 179.15 512.1 179.402 511.709C179.654 511.317 179.981 510.979 180.364 510.714C180.747 510.449 181.178 510.262 181.633 510.164Z" fill="#2F2E41"/>
<path d="M168.343 430.516C171.728 429.789 173.88 426.446 173.151 423.05C172.421 419.654 169.085 417.491 165.7 418.218C162.315 418.945 160.163 422.288 160.892 425.684C161.622 429.08 164.958 431.243 168.343 430.516Z" fill="#FFB8B8"/>
<path d="M167.057 424.587C166.891 423.763 168.28 423.356 168.87 423.963C169.46 424.569 169.375 425.545 169.144 426.358C168.904 427.204 168.546 428.084 168.812 428.929C168.887 429.141 169.014 429.331 169.181 429.481C169.348 429.63 169.55 429.735 169.768 429.786C169.987 429.836 170.214 429.83 170.429 429.768C170.645 429.707 170.841 429.592 171 429.433C172.736 427.767 174.039 425.603 174.316 423.249C174.606 420.773 173.622 418.106 171.54 416.699C169.459 415.292 166.302 415.446 164.587 417.297L160.635 415.682C160.542 415.642 160.438 415.632 160.339 415.654C160.24 415.675 160.15 415.727 160.081 415.802C160.012 415.877 159.968 415.971 159.955 416.072C159.942 416.173 159.961 416.276 160.008 416.366L160.865 417.9L159.03 417.835C158.951 417.83 158.873 417.85 158.806 417.89C158.738 417.931 158.684 417.991 158.651 418.063C158.619 418.134 158.608 418.215 158.621 418.292C158.635 418.37 158.671 418.442 158.726 418.499L159.523 419.302C158.585 418.816 157.37 419.861 157.473 420.9C157.577 421.939 158.6 422.698 159.648 422.872C160.697 423.047 161.767 422.771 162.797 422.498C162.793 423.028 162.956 423.545 163.263 423.976C163.569 424.408 164.003 424.731 164.503 424.901C165.516 425.231 166.733 424.841 167.057 424.587Z" fill="#2F2E41"/>
<path d="M185.777 505.253C185.765 505.255 185.753 505.258 185.741 505.26L181.305 506.069C181.154 506.096 181 506.093 180.85 506.06C180.701 506.027 180.559 505.964 180.434 505.875C180.31 505.786 180.203 505.673 180.123 505.542C180.042 505.412 179.988 505.266 179.964 505.115L173.445 464.043L191.414 465.222L209.984 497.581C210.073 497.736 210.124 497.91 210.135 498.088C210.145 498.267 210.114 498.445 210.044 498.61C209.974 498.774 209.867 498.919 209.73 499.035C209.594 499.15 209.433 499.232 209.26 499.274L204.214 500.5C203.985 500.554 203.746 500.537 203.528 500.452C203.309 500.367 203.121 500.217 202.989 500.022L185.409 473.813C185.362 473.743 185.293 473.69 185.213 473.663C185.133 473.636 185.047 473.636 184.967 473.663C184.888 473.69 184.819 473.743 184.772 473.813C184.726 473.884 184.703 473.967 184.709 474.052L186.681 504.052C186.699 504.328 186.617 504.601 186.452 504.821C186.286 505.042 186.046 505.195 185.777 505.253Z" fill="#2F2E41"/>
<path d="M191.746 470.766C190.542 471.024 189.288 470.894 188.163 470.394L181.866 467.619C180.484 467.012 178.978 466.746 177.474 466.845L174.77 467.024C174.355 467.053 173.944 466.926 173.617 466.667C173.29 466.409 173.07 466.038 173.001 465.627L168.653 440.305L167.264 436.86C167.152 436.579 167.122 436.272 167.178 435.974C167.234 435.677 167.374 435.402 167.581 435.183L171.721 430.806C172.048 430.461 172.482 430.239 172.951 430.176L173.132 430.152C173.638 430.084 174.152 430.177 174.602 430.419C175.052 430.66 175.416 431.038 175.641 431.497L175.987 432.205L180.457 437.273C181.777 438.771 182.887 440.443 183.756 442.243L189.532 454.212C190.034 455.254 190.458 456.331 190.801 457.435L194.255 468.573C194.331 468.814 194.327 469.073 194.244 469.311C194.16 469.549 194.002 469.753 193.793 469.893C193.172 470.312 192.477 470.609 191.746 470.766Z" fill="#6C63FF"/>
<path d="M179.627 463.856C179.488 463.533 179.421 463.185 179.431 462.834C179.441 462.483 179.527 462.139 179.684 461.825C179.841 461.512 180.065 461.237 180.339 461.019C180.614 460.802 180.933 460.648 181.273 460.568L182.151 455.154L185.563 454.891L184.215 462.519C184.313 463.102 184.193 463.7 183.88 464.2C183.567 464.7 183.081 465.067 182.516 465.232C181.95 465.397 181.344 465.348 180.811 465.094C180.279 464.84 179.857 464.4 179.627 463.856Z" fill="#FFB8B8"/>
<path d="M185.956 458.808C185.58 459.084 185.114 459.206 184.651 459.149L181.386 458.747C181.087 458.71 180.802 458.6 180.555 458.426C180.309 458.252 180.109 458.02 179.974 457.75L174.964 447.79L169.809 441.569C169.288 440.939 169.026 440.134 169.075 439.318C169.125 438.502 169.482 437.735 170.075 437.175C170.385 436.883 170.749 436.656 171.147 436.507C171.544 436.358 171.968 436.29 172.392 436.307C172.816 436.323 173.233 436.424 173.619 436.604C174.004 436.784 174.35 437.038 174.637 437.353L181.352 444.735L184.981 449.769C186.128 451.368 186.738 453.291 186.723 455.26L186.702 457.349C186.699 457.607 186.642 457.862 186.535 458.096C186.428 458.33 186.272 458.54 186.079 458.71C186.039 458.744 185.998 458.777 185.956 458.808Z" fill="#6C63FF"/>
<path d="M158.081 486.68L22.7423 515.758C21.6504 515.991 20.5102 515.78 19.5719 515.172C18.6336 514.563 17.9738 513.606 17.7372 512.511L1.28864 435.954L144.862 405.107L161.311 481.664C161.545 482.76 161.337 483.903 160.731 484.843C160.125 485.783 159.172 486.444 158.081 486.68Z" fill="#E6E6E6"/>
<path d="M150.996 479.93L26.4293 506.693C25.8668 506.814 25.2794 506.705 24.796 506.392C24.3127 506.078 23.9728 505.585 23.8509 505.021L10.8268 444.403C10.7063 443.838 10.8137 443.249 11.1257 442.765C11.4376 442.281 11.9285 441.94 12.4908 441.819L137.058 415.055C137.62 414.935 138.208 415.044 138.691 415.357C139.174 415.671 139.514 416.163 139.636 416.727L152.66 477.346C152.781 477.91 152.673 478.499 152.361 478.984C152.049 479.468 151.559 479.808 150.996 479.93Z" fill="white"/>
<path d="M145.75 407.835L1.60009 438.806L0.887516 435.49C0.653446 434.394 0.862061 433.251 1.46759 432.311C2.07312 431.37 3.02612 430.71 4.11751 430.474L140.033 401.272C141.124 401.039 142.265 401.25 143.203 401.858C144.141 402.467 144.801 403.424 145.038 404.519L145.75 407.835Z" fill="#6C63FF"/>
<path d="M46.7425 446.906L24.5704 451.67C24.008 451.791 23.5169 452.131 23.2049 452.616C22.8929 453.1 22.7856 453.689 22.9064 454.254L26.0477 468.874C26.1693 469.438 26.5091 469.931 26.9926 470.245C27.476 470.558 28.0635 470.667 28.626 470.546L50.7982 465.783C51.3604 465.661 51.8512 465.321 52.1631 464.836C52.475 464.352 52.5826 463.763 52.4622 463.199L49.3209 448.578C49.1989 448.014 48.859 447.522 48.3756 447.208C47.8923 446.895 47.305 446.786 46.7425 446.906Z" fill="#E6E6E6"/>
<path d="M88.4167 437.952L66.2446 442.716C65.6822 442.837 65.1911 443.177 64.8791 443.662C64.5671 444.146 64.4598 444.735 64.5806 445.3L67.7219 459.92C67.8435 460.484 68.1833 460.977 68.6668 461.291C69.1502 461.605 69.7377 461.713 70.3002 461.592L92.4724 456.829C93.0346 456.707 93.5254 456.367 93.8373 455.883C94.1492 455.398 94.2568 454.809 94.1364 454.245L90.9951 439.624C90.8731 439.06 90.5332 438.568 90.0498 438.254C89.5665 437.941 88.9792 437.832 88.4167 437.952Z" fill="#E6E6E6"/>
<path d="M130.091 428.998L107.919 433.762C107.356 433.883 106.865 434.224 106.553 434.708C106.241 435.192 106.134 435.782 106.255 436.346L109.396 450.966C109.518 451.531 109.857 452.024 110.341 452.337C110.824 452.651 111.412 452.759 111.974 452.639L134.147 447.875C134.709 447.753 135.2 447.413 135.511 446.929C135.823 446.444 135.931 445.856 135.81 445.291L132.669 430.671C132.547 430.107 132.207 429.614 131.724 429.3C131.241 428.987 130.653 428.878 130.091 428.998Z" fill="#E6E6E6"/>
<path d="M49.146 473.366L33.2475 476.782C32.9347 476.849 32.6616 477.038 32.4881 477.308C32.3147 477.577 32.2551 477.905 32.3225 478.218C32.3899 478.532 32.5788 478.806 32.8476 478.981C33.1164 479.155 33.443 479.215 33.7558 479.148L49.6543 475.732C49.9671 475.665 50.2402 475.476 50.4137 475.206C50.5871 474.937 50.6467 474.61 50.5793 474.296C50.5119 473.982 50.323 473.708 50.0542 473.534C49.7854 473.359 49.4588 473.299 49.146 473.366Z" fill="#E6E6E6"/>
<path d="M50.5348 479.83L34.6363 483.246C34.3663 483.304 34.1243 483.452 33.9507 483.667C33.7772 483.883 33.6825 484.151 33.6827 484.428C33.6829 484.705 33.7778 484.973 33.9517 485.189C34.1255 485.404 34.3677 485.553 34.6378 485.611C34.8047 485.648 34.9776 485.648 35.1446 485.612L51.0432 482.196C51.3559 482.129 51.629 481.94 51.8025 481.671C51.9759 481.401 52.0355 481.074 51.9681 480.76C51.9007 480.446 51.7118 480.172 51.443 479.998C51.1742 479.823 50.8476 479.763 50.5348 479.83Z" fill="#E6E6E6"/>
<path d="M51.9237 486.294L36.0251 489.71C35.7124 489.777 35.4393 489.966 35.2658 490.236C35.0923 490.505 35.0328 490.833 35.1002 491.146C35.1676 491.46 35.3564 491.734 35.6252 491.909C35.894 492.083 36.2207 492.143 36.5334 492.076L52.432 488.66C52.7447 488.593 53.0178 488.404 53.1913 488.135C53.3648 487.865 53.4243 487.538 53.3569 487.224C53.2895 486.91 53.1007 486.636 52.8319 486.462C52.5631 486.287 52.2364 486.227 51.9237 486.294Z" fill="#E6E6E6"/>
<path d="M90.8202 464.412L74.9217 467.828C74.6089 467.895 74.3358 468.085 74.1623 468.354C73.9889 468.623 73.9293 468.951 73.9967 469.265C74.0641 469.578 74.253 469.852 74.5218 470.027C74.7906 470.201 75.1172 470.261 75.43 470.194L91.3285 466.778C91.6413 466.711 91.9144 466.522 92.0878 466.253C92.2613 465.983 92.3209 465.656 92.2535 465.342C92.1861 465.028 91.9972 464.754 91.7284 464.58C91.4596 464.405 91.1329 464.345 90.8202 464.412Z" fill="#E6E6E6"/>
<path d="M92.209 470.876L76.3104 474.292C75.9977 474.36 75.7246 474.549 75.5511 474.818C75.3777 475.087 75.3181 475.415 75.3855 475.729C75.4529 476.042 75.6418 476.316 75.9106 476.491C76.1794 476.665 76.506 476.725 76.8188 476.658L92.7173 473.242C93.03 473.175 93.3032 472.986 93.4766 472.717C93.6501 472.447 93.7097 472.12 93.6423 471.806C93.5749 471.492 93.386 471.218 93.1172 471.044C92.8484 470.869 92.5217 470.809 92.209 470.876Z" fill="#E6E6E6"/>
<path d="M93.5979 477.341L77.6993 480.756C77.4189 480.816 77.1691 480.974 76.9947 481.202C76.8203 481.43 76.7327 481.713 76.7475 482.001C76.7624 482.288 76.8788 482.561 77.0759 482.77C77.2729 482.979 77.5377 483.111 77.8228 483.142C77.9513 483.157 78.0813 483.15 78.2076 483.122L94.1062 479.706C94.4189 479.639 94.692 479.45 94.8655 479.181C95.039 478.911 95.0985 478.584 95.0311 478.27C94.9637 477.956 94.7749 477.682 94.5061 477.508C94.2373 477.334 93.9106 477.273 93.5979 477.341Z" fill="#E6E6E6"/>
<path d="M132.494 455.459L116.596 458.874C116.283 458.942 116.01 459.131 115.837 459.4C115.663 459.669 115.603 459.997 115.671 460.311C115.738 460.624 115.927 460.899 116.196 461.073C116.465 461.247 116.791 461.307 117.104 461.24L133.003 457.824C133.315 457.757 133.589 457.568 133.762 457.299C133.936 457.029 133.995 456.702 133.928 456.388C133.86 456.074 133.671 455.8 133.403 455.626C133.134 455.452 132.807 455.391 132.494 455.459Z" fill="#E6E6E6"/>
<path d="M133.883 461.923L117.985 465.339C117.715 465.396 117.473 465.545 117.299 465.76C117.126 465.975 117.031 466.243 117.031 466.52C117.031 466.797 117.126 467.066 117.3 467.281C117.474 467.496 117.716 467.645 117.986 467.703C118.153 467.74 118.326 467.74 118.493 467.704L134.392 464.289C134.704 464.221 134.977 464.032 135.151 463.763C135.324 463.494 135.384 463.166 135.316 462.852C135.249 462.539 135.06 462.264 134.791 462.09C134.523 461.916 134.196 461.855 133.883 461.923Z" fill="#E6E6E6"/>
<path d="M135.272 468.387L119.373 471.803C119.061 471.87 118.788 472.059 118.614 472.328C118.441 472.598 118.381 472.925 118.449 473.239C118.516 473.553 118.705 473.827 118.974 474.001C119.242 474.175 119.569 474.236 119.882 474.168L135.78 470.753C136.093 470.685 136.366 470.496 136.54 470.227C136.713 469.958 136.773 469.63 136.705 469.316C136.638 469.003 136.449 468.728 136.18 468.554C135.911 468.38 135.585 468.32 135.272 468.387Z" fill="#E6E6E6"/>
<path d="M5.76262 435.184C6.35296 435.057 6.72838 434.474 6.60113 433.882C6.47388 433.29 5.89216 432.912 5.30182 433.039C4.71148 433.166 4.33606 433.749 4.46331 434.341C4.59056 434.934 5.17228 435.311 5.76262 435.184Z" fill="white"/>
<path d="M9.81993 434.312C10.4103 434.185 10.7857 433.602 10.6584 433.01C10.5312 432.418 9.94948 432.041 9.35913 432.167C8.76879 432.294 8.39338 432.877 8.52062 433.47C8.64787 434.062 9.22959 434.439 9.81993 434.312Z" fill="white"/>
<path d="M13.8772 433.441C14.4676 433.314 14.843 432.731 14.7158 432.138C14.5885 431.546 14.0068 431.169 13.4164 431.296C12.8261 431.423 12.4507 432.006 12.5779 432.598C12.7052 433.19 13.2869 433.567 13.8772 433.441Z" fill="white"/>
<path d="M44.6217 474.338L33.2475 476.782C32.9347 476.849 32.6616 477.038 32.4881 477.308C32.3147 477.577 32.2551 477.905 32.3225 478.218C32.3899 478.532 32.5788 478.806 32.8476 478.981C33.1164 479.155 33.4431 479.215 33.7558 479.148L44.893 476.755C45.0984 476.614 45.2616 476.42 45.3652 476.192C45.4688 475.965 45.5088 475.714 45.4809 475.466C45.453 475.218 45.3583 474.981 45.207 474.783C45.0556 474.584 44.8533 474.431 44.6217 474.338Z" fill="#6C63FF"/>
<path d="M40.7576 481.931L34.6363 483.246C34.3664 483.304 34.1243 483.452 33.9508 483.667C33.7772 483.883 33.6826 484.151 33.6828 484.428C33.683 484.705 33.7779 484.973 33.9517 485.189C34.1256 485.404 34.3678 485.553 34.6378 485.611L40.2602 484.403C40.6162 484.326 40.9271 484.111 41.1245 483.804C41.322 483.498 41.3899 483.125 41.3133 482.768C41.2422 482.427 41.0432 482.128 40.7576 481.931Z" fill="#6C63FF"/>
<path d="M50.7358 486.55L36.0251 489.71C35.7124 489.777 35.4393 489.966 35.2658 490.236C35.0923 490.505 35.0328 490.833 35.1002 491.146C35.1676 491.46 35.3564 491.734 35.6252 491.909C35.894 492.083 36.2207 492.143 36.5334 492.076L51.3389 488.895C51.5209 488.727 51.654 488.512 51.724 488.274C51.7939 488.036 51.7982 487.783 51.7364 487.542C51.6745 487.302 51.5488 487.082 51.3726 486.908C51.1964 486.733 50.9763 486.609 50.7358 486.55Z" fill="#6C63FF"/>
<path d="M120.511 458.033L116.596 458.874C116.335 458.93 116.099 459.071 115.927 459.276C115.755 459.48 115.655 459.736 115.644 460.004C115.632 460.272 115.71 460.536 115.864 460.755C116.018 460.974 116.24 461.135 116.495 461.214L119.964 460.469C120.32 460.392 120.631 460.177 120.828 459.87C121.026 459.563 121.094 459.191 121.017 458.833C120.95 458.514 120.77 458.23 120.511 458.033Z" fill="#6C63FF"/>
<path d="M124.855 463.863L117.985 465.339C117.715 465.396 117.473 465.545 117.299 465.76C117.126 465.975 117.031 466.243 117.031 466.52C117.031 466.797 117.126 467.066 117.3 467.281C117.474 467.496 117.716 467.645 117.986 467.703L124.357 466.334C124.713 466.258 125.024 466.043 125.222 465.736C125.419 465.429 125.487 465.056 125.41 464.699C125.339 464.359 125.14 464.059 124.855 463.863Z" fill="#6C63FF"/>
<path d="M131.09 469.285L119.374 471.803C119.061 471.87 118.788 472.059 118.614 472.328C118.441 472.598 118.381 472.925 118.449 473.239C118.516 473.553 118.705 473.827 118.974 474.001C119.242 474.175 119.569 474.236 119.882 474.168L131.693 471.631C131.875 471.463 132.008 471.248 132.078 471.01C132.148 470.772 132.152 470.519 132.09 470.278C132.028 470.038 131.903 469.818 131.726 469.643C131.55 469.469 131.33 469.345 131.09 469.285Z" fill="#6C63FF"/>
<path d="M91.1035 471.114L76.3105 474.292C75.9978 474.36 75.7247 474.549 75.5512 474.818C75.3777 475.087 75.3182 475.415 75.3856 475.729C75.453 476.042 75.6418 476.316 75.9106 476.491C76.1794 476.665 76.5061 476.725 76.8188 476.658L91.5445 473.494C91.7373 473.339 91.8845 473.134 91.9705 472.901C92.0564 472.669 92.078 472.417 92.0328 472.173C91.9875 471.929 91.8773 471.702 91.7137 471.515C91.5501 471.329 91.3392 471.19 91.1035 471.114Z" fill="#6C63FF"/>
<path d="M79.2864 480.415L77.6993 480.756C77.4189 480.816 77.1691 480.974 76.9947 481.202C76.8203 481.43 76.7327 481.713 76.7475 482.001C76.7624 482.288 76.8788 482.561 77.0759 482.77C77.2729 482.979 77.5377 483.111 77.8228 483.142L78.841 482.923C79.197 482.847 79.5079 482.631 79.7054 482.325C79.9029 482.018 79.9708 481.645 79.8941 481.288C79.8564 481.109 79.7832 480.94 79.6787 480.79C79.5743 480.64 79.4409 480.513 79.2864 480.415Z" fill="#6C63FF"/>
<path d="M83.5509 465.974L74.9217 467.828C74.6089 467.895 74.3358 468.085 74.1623 468.354C73.9889 468.623 73.9293 468.951 73.9967 469.265C74.0641 469.578 74.253 469.852 74.5218 470.027C74.7906 470.201 75.1172 470.261 75.43 470.194L83.8222 468.391C84.0276 468.25 84.1908 468.055 84.2944 467.828C84.398 467.601 84.4379 467.35 84.4101 467.102C84.3822 466.854 84.2875 466.617 84.1361 466.419C83.9848 466.22 83.7825 466.067 83.5509 465.974Z" fill="#6C63FF"/>
<path d="M220.285 505.746L166.134 517.38C166.068 517.394 165.998 517.382 165.942 517.345C165.885 517.308 165.845 517.25 165.83 517.183C165.816 517.117 165.829 517.048 165.865 516.991C165.902 516.934 165.96 516.894 166.026 516.879L220.178 505.245C220.244 505.231 220.313 505.243 220.37 505.28C220.427 505.317 220.467 505.375 220.481 505.442C220.495 505.508 220.483 505.577 220.446 505.634C220.409 505.691 220.351 505.731 220.285 505.746Z" fill="#CCCCCC"/>
</g>
<g clip-path="url(#clip1_3_431)">
<path d="M80.4673 138.188C80.4883 138.231 80.5254 138.264 80.5705 138.28C80.6157 138.295 80.6653 138.292 80.7085 138.272L150.491 96.1735C150.526 96.1426 150.55 96.1004 150.557 96.0541C150.564 96.0079 150.555 95.9606 150.531 95.9206C150.507 95.8806 150.469 95.8504 150.425 95.8353C150.381 95.8202 150.332 95.8211 150.289 95.838L80.5061 137.936C80.4676 137.965 80.442 138.007 80.4348 138.055C80.4275 138.102 80.4392 138.15 80.4673 138.188Z" fill="#D6D6E3"/>
<path d="M107.976 99.0113C108.295 99.7688 108.329 100.617 108.072 101.399C107.815 102.182 107.285 102.848 106.578 103.274C105.871 103.701 105.035 103.86 104.223 103.722C103.411 103.584 102.677 103.158 102.155 102.523L94.7088 107.015L104.596 123.404L125.309 110.908L115.423 94.519L107.976 99.0113Z" fill="#D6D6E3"/>
<path d="M146.977 76.0554L63.6609 126.318C63.3546 126.502 62.9879 126.558 62.6415 126.473C62.295 126.388 61.9969 126.17 61.8128 125.865L33.2607 78.537C33.0772 78.2321 33.0227 77.8664 33.1092 77.5203C33.1957 77.1742 33.4161 76.8759 33.7221 76.6909L117.038 26.4284C117.344 26.2441 117.711 26.1883 118.057 26.2732C118.404 26.3582 118.702 26.5769 118.886 26.8814L147.438 74.2095C147.621 74.5145 147.676 74.8801 147.589 75.2262C147.503 75.5723 147.282 75.8706 146.976 76.0556L146.977 76.0554Z" fill="#090814"/>
<path d="M117.405 28.8228L35.8745 78.0085L63.4992 123.8L145.03 74.6139L117.405 28.8228Z" fill="white"/>
<path d="M58.7606 84.444C57.9533 84.931 57.0203 85.1689 56.0797 85.1274C55.1391 85.0859 54.233 84.767 53.4762 84.211C52.7193 83.6549 52.1456 82.8867 51.8276 82.0036C51.5097 81.1204 51.4617 80.1619 51.6897 79.2492C51.9178 78.3366 52.4117 77.5108 53.109 76.8764C53.8062 76.2419 54.6755 75.8272 55.6069 75.6848C56.5384 75.5424 57.49 75.6786 58.3417 76.0762C59.1933 76.4738 59.9066 77.1149 60.3914 77.9185C61.0414 78.9961 61.2348 80.2889 60.929 81.5127C60.6231 82.7364 59.8432 83.7908 58.7606 84.444ZM54.0273 76.598C53.2757 77.0515 52.6747 77.7166 52.3005 78.5093C51.9262 79.302 51.7955 80.1866 51.9248 81.0514C52.0542 81.9162 52.4377 82.7222 53.0271 83.3676C53.6164 84.0129 54.3849 84.4686 55.2356 84.677C56.0863 84.8855 56.9808 84.8372 57.8061 84.5385C58.6314 84.2397 59.3503 83.7038 59.8721 82.9986C60.3938 82.2933 60.6949 81.4504 60.7372 80.5764C60.7795 79.7024 60.5612 78.8365 60.1099 78.0883C59.5046 77.0851 58.5238 76.3644 57.3831 76.085C56.2424 75.8055 55.0353 75.9901 54.0274 76.5981L54.0273 76.598Z" fill="#3F3D56"/>
<path d="M59.1943 81.5784C59.0875 81.6429 58.9595 81.6625 58.8385 81.633C58.7175 81.6034 58.6134 81.5271 58.5491 81.4208L57.1737 79.141C57.1097 79.0346 57.0907 78.9071 57.1208 78.7864C57.151 78.6657 57.2278 78.5617 57.3345 78.4972L57.3353 78.4967C57.4421 78.4324 57.57 78.4129 57.6908 78.4425C57.8117 78.4721 57.9156 78.5484 57.9799 78.6546L59.3553 80.9345C59.4193 81.0409 59.4383 81.1684 59.4081 81.2891C59.3779 81.4098 59.3011 81.5138 59.1943 81.5784ZM58.1429 82.2127C58.0899 82.2454 58.031 82.2673 57.9695 82.2773C57.9081 82.2872 57.8454 82.2849 57.7849 82.2706C57.7245 82.2562 57.6675 82.2301 57.6173 82.1936C57.5672 82.1572 57.5247 82.1112 57.4925 82.0583L56.7516 80.8302C56.6876 80.7239 56.6686 80.5964 56.6988 80.4757C56.729 80.3551 56.8058 80.251 56.9125 80.1865L56.9183 80.183C57.0251 80.1188 57.1529 80.0993 57.2738 80.1289C57.3946 80.1585 57.4985 80.2347 57.5627 80.3409L58.3036 81.569C58.3675 81.6753 58.3866 81.8028 58.3564 81.9234C58.3263 82.0441 58.2495 82.1481 58.1429 82.2127ZM57.0812 82.8532C56.9744 82.9177 56.8464 82.9373 56.7254 82.9078C56.6044 82.8782 56.5003 82.8019 56.436 82.6956L54.3209 79.1896C54.2569 79.0833 54.2379 78.9558 54.268 78.8351C54.2982 78.7144 54.375 78.6104 54.4817 78.5458L54.4824 78.5454C54.5893 78.4811 54.7172 78.4617 54.838 78.4913C54.9588 78.5209 55.0627 78.5972 55.1269 78.7034L57.242 82.2094C57.306 82.3157 57.325 82.4432 57.2949 82.5639C57.2647 82.6846 57.1879 82.7886 57.0812 82.8532ZM56.0237 83.4912C55.9707 83.5232 55.9121 83.5445 55.851 83.5538C55.7899 83.5632 55.7277 83.5605 55.6678 83.5458C55.6078 83.5312 55.5515 83.5048 55.5018 83.4684C55.4522 83.4319 55.4103 83.386 55.3786 83.3332L55.0609 82.8066C54.9968 82.7003 54.9777 82.5728 55.0079 82.452C55.038 82.3313 55.115 82.2273 55.2218 82.1628C55.3286 82.0984 55.4565 82.0789 55.5774 82.1085C55.6982 82.1381 55.8022 82.2144 55.8663 82.3207L56.1839 82.8472C56.2479 82.9536 56.2669 83.0811 56.2368 83.2018C56.2067 83.3225 56.1298 83.4265 56.0231 83.4911L56.0237 83.4912Z" fill="#6C63FF"/>
<path d="M72.2795 70.1354L63.2889 75.5592C63.0902 75.6791 62.8522 75.7155 62.6273 75.6604C62.4025 75.6053 62.2091 75.4632 62.0898 75.2654C61.9705 75.0676 61.935 74.8303 61.9911 74.6057C62.0472 74.3811 62.1904 74.1876 62.3891 74.0677L71.3797 68.6439C71.5784 68.524 71.8164 68.4876 72.0413 68.5427C72.2662 68.5978 72.4595 68.7398 72.5788 68.9376C72.6982 69.1354 72.7337 69.3727 72.6775 69.5973C72.6214 69.8219 72.4782 70.0155 72.2795 70.1354Z" fill="#E6E6E6"/>
<path d="M81.0672 68.0906L64.5608 78.0486C64.2397 78.2423 63.7787 78.065 63.5302 77.6531C63.2817 77.2412 63.3403 76.7505 63.661 76.5571L80.1674 66.5991C80.4885 66.4054 80.9495 66.5827 81.1979 66.9945C81.4464 67.4064 81.3879 67.8971 81.0672 68.0906Z" fill="#E6E6E6"/>
<path d="M93.3207 63.5947C92.5133 64.0817 91.5804 64.3195 90.6398 64.278C89.6992 64.2365 88.7931 63.9176 88.0363 63.3615C87.2795 62.8055 86.7058 62.0373 86.3878 61.1541C86.0698 60.2709 86.0219 59.3124 86.2499 58.3998C86.478 57.4872 86.9719 56.6614 87.6692 56.027C88.3664 55.3925 89.2357 54.9779 90.1672 54.8354C91.0986 54.693 92.0503 54.8292 92.9019 55.2268C93.7535 55.6244 94.4668 56.2655 94.9515 57.0692C95.6016 58.1467 95.795 59.4396 95.4891 60.6634C95.1833 61.8871 94.4033 62.9416 93.3207 63.5947ZM88.5874 55.7487C87.8358 56.2022 87.2348 56.8673 86.8606 57.66C86.4864 58.4527 86.3557 59.3374 86.485 60.2021C86.6144 61.0669 86.998 61.8729 87.5873 62.5182C88.1766 63.1636 88.9452 63.6193 89.7958 63.8277C90.6465 64.0361 91.541 63.9879 92.3663 63.6891C93.1916 63.3903 93.9105 62.8544 94.4323 62.1492C94.954 61.444 95.2551 60.601 95.2974 59.727C95.3397 58.853 95.1214 57.9872 94.6701 57.239C94.3704 56.7422 93.9753 56.3096 93.5074 55.9659C93.0396 55.6221 92.508 55.374 91.9432 55.2356C91.3784 55.0972 90.7913 55.0713 90.2156 55.1594C89.6398 55.2475 89.0865 55.4476 88.5874 55.7487Z" fill="#3F3D56"/>
<path d="M91.5695 58.1475L91.5044 59.8388C91.6149 59.8775 91.7082 59.9535 91.7683 60.0538C91.8355 60.1693 91.8544 60.3067 91.8209 60.4364C91.7874 60.5661 91.7042 60.6776 91.5893 60.747C91.4743 60.8163 91.3368 60.8379 91.2065 60.807C91.0762 60.7762 90.9634 60.6954 90.8926 60.5821C90.8759 60.5539 90.8616 60.5244 90.8498 60.4938L90.1409 60.5062C90.1125 60.6125 90.0503 60.7068 89.9638 60.775C89.8773 60.8433 89.771 60.8818 89.6609 60.8847L89.4164 61.7429L89.7298 62.2623C89.792 62.3648 89.8924 62.4384 90.0091 62.4671C90.1257 62.4958 90.2492 62.4772 90.3526 62.4156L93.6612 60.4196C93.7642 60.3568 93.8383 60.2561 93.8675 60.1394C93.8967 60.0226 93.8785 59.8993 93.8169 59.7962L92.6551 57.8703L91.9071 57.839C91.8785 57.9128 91.8331 57.9792 91.7745 58.0327C91.7159 58.0862 91.6457 58.1256 91.5695 58.1475Z" fill="#6C63FF"/>
<path d="M89.3873 59.9433C89.5034 59.8732 89.6425 59.8519 89.7739 59.8841C89.9053 59.9163 90.0183 59.9993 90.0881 60.1149L90.1219 60.171L90.854 60.1458C90.8936 60.0348 90.9706 59.9408 91.0718 59.8798C91.1038 59.8608 91.1376 59.845 91.1727 59.8326L91.2289 58.1227C91.1556 58.0909 91.0908 58.0423 91.04 57.9808C90.9891 57.9193 90.9536 57.8466 90.9363 57.7686C90.9189 57.6907 90.9203 57.6097 90.9403 57.5322C90.9602 57.4547 90.9982 57.383 91.0511 57.3228C91.104 57.2626 91.1704 57.2157 91.2448 57.1858C91.3192 57.1559 91.3995 57.1439 91.4793 57.1509C91.559 57.1578 91.6359 57.1834 91.7037 57.2256C91.7716 57.2679 91.8284 57.3255 91.8695 57.3939C91.8904 57.4285 91.9073 57.4654 91.9198 57.5039L92.4485 57.5272L92.01 56.8003C91.9475 56.6977 91.8469 56.6242 91.73 56.5955C91.6131 56.5669 91.4895 56.5855 91.3859 56.6474L88.077 58.6436C87.9741 58.7063 87.9001 58.8069 87.871 58.9236C87.842 59.0403 87.8604 59.1635 87.9221 59.2664L89.1782 61.3484L89.333 60.7804C89.2689 60.7294 89.2181 60.6636 89.1851 60.5886C89.152 60.5136 89.1377 60.4317 89.1432 60.3498C89.1488 60.268 89.1741 60.1886 89.217 60.1185C89.2599 60.0483 89.3192 59.9895 89.3897 59.947L89.3873 59.9433Z" fill="#6C63FF"/>
<path d="M106.84 49.286L97.8492 54.7098C97.6505 54.8297 97.4125 54.8661 97.1877 54.811C96.9628 54.7559 96.7694 54.6138 96.6501 54.416C96.5308 54.2183 96.4953 53.9809 96.5514 53.7563C96.6075 53.5317 96.7507 53.3382 96.9494 53.2183L105.94 47.7945C106.139 47.6746 106.377 47.6382 106.602 47.6933C106.826 47.7484 107.02 47.8904 107.139 48.0882C107.258 48.286 107.294 48.5233 107.238 48.7479C107.182 48.9726 107.039 49.1661 106.84 49.286Z" fill="#E6E6E6"/>
<path d="M115.628 47.2412L99.1211 57.1991C98.8 57.3928 98.339 57.2155 98.0905 56.8037C97.842 56.3918 97.9006 55.9011 98.2213 55.7076L114.728 45.7497C115.049 45.5559 115.51 45.7333 115.758 46.1451C116.007 46.557 115.948 47.0477 115.628 47.2412Z" fill="#E6E6E6"/>
<path d="M61.9943 88.0419C61.7048 88.1463 61.4265 88.2792 61.1633 88.4387C60.1143 89.0702 59.3473 90.0792 59.0213 91.2566C58.6953 92.434 58.8354 93.6896 59.4124 94.7631C59.9894 95.8366 60.9592 96.6457 62.1207 97.0227C63.2823 97.3997 64.5465 97.3157 65.6513 96.7881C66.7561 96.2605 67.6169 95.3297 68.0552 94.1887C68.4935 93.0477 68.4757 91.784 68.0055 90.6595C67.5353 89.535 66.6488 88.6359 65.5296 88.1486C64.4105 87.6612 63.1446 87.623 61.9943 88.0419ZM66.8616 95.4864C66.4306 95.9527 65.9047 96.3215 65.3194 96.5679C64.7341 96.8143 64.103 96.9326 63.469 96.9148C62.835 96.897 62.2128 96.7434 61.6445 96.4645C61.0762 96.1856 60.5751 95.7879 60.175 95.2983C59.775 94.8087 59.4854 94.2386 59.3259 93.6266C59.1663 93.0146 59.1405 92.3751 59.2502 91.7512C59.36 91.1273 59.6026 90.5337 59.9618 90.0105C60.321 89.4873 60.7883 89.0467 61.3322 88.7186C61.4444 88.6509 61.5589 88.5891 61.6741 88.5312C62.6029 88.0769 63.6602 87.9601 64.6633 88.2009C65.6663 88.4417 66.5521 89.0251 67.1674 89.8501C67.7828 90.675 68.089 91.6898 68.0331 92.719C67.9773 93.7481 67.5629 94.7269 66.8616 95.4862L66.8616 95.4864Z" fill="#3F3D56"/>
<path d="M65.5549 90.3508C65.0654 89.8441 64.3936 89.5528 63.687 89.5408C62.9805 89.5288 62.2968 89.7971 61.7862 90.2868C61.7365 90.3347 61.6861 90.387 61.6434 90.4348L63.6261 92.4894L65.6939 90.5035C65.6504 90.4541 65.6027 90.4003 65.5549 90.3508Z" fill="#6C63FF"/>
<path d="M65.68 91.0825L63.6113 93.069L61.6295 91.0138C61.2895 91.3944 61.0656 91.8638 60.9843 92.3665C60.903 92.8691 60.9677 93.3839 61.1709 93.8498C61.374 94.3157 61.707 94.7131 62.1304 94.995C62.5537 95.2769 63.0497 95.4314 63.5595 95.4402C64.0693 95.449 64.5716 95.3117 65.0067 95.0447C65.4419 94.7776 65.7917 94.392 66.0147 93.9334C66.2376 93.4749 66.3244 92.9628 66.2647 92.4577C66.2051 91.9526 66.0014 91.4758 65.678 91.0837L65.68 91.0825Z" fill="#6C63FF"/>
<path d="M79.5899 82.253L70.5993 87.6769C70.4006 87.7967 70.1626 87.8331 69.9377 87.7781C69.7128 87.723 69.5195 87.5809 69.4002 87.3831C69.2808 87.1853 69.2453 86.948 69.3015 86.7234C69.3576 86.4988 69.5008 86.3052 69.6995 86.1854L78.6901 80.7615C78.8888 80.6417 79.1268 80.6053 79.3516 80.6604C79.5765 80.7154 79.7699 80.8575 79.8892 81.0553C80.0085 81.2531 80.044 81.4904 79.9879 81.715C79.9318 81.9396 79.7886 82.1332 79.5899 82.253Z" fill="#E6E6E6"/>
<path d="M88.3776 80.2083L71.8711 90.1662C71.55 90.3599 71.0891 90.1826 70.8406 89.7708C70.5921 89.3589 70.6507 88.8682 70.9713 88.6747L87.4778 78.7168C87.7989 78.523 88.2598 78.7004 88.5083 79.1122C88.7568 79.5241 88.6982 80.0148 88.3776 80.2083Z" fill="#E6E6E6"/>
<path d="M100.619 75.692C99.8117 76.1791 98.8787 76.4171 97.9381 76.3757C96.9975 76.3343 96.0914 76.0154 95.3345 75.4594C94.5775 74.9035 94.0038 74.1353 93.6857 73.2521C93.3677 72.3689 93.3196 71.4104 93.5477 70.4977C93.7757 69.5851 94.2696 68.7593 94.9668 68.1248C95.664 67.4903 96.5334 67.0755 97.4648 66.9331C98.3962 66.7906 99.3479 66.9268 100.2 67.3244C101.051 67.722 101.765 68.3631 102.249 69.1668C102.899 70.2443 103.093 71.537 102.787 72.7607C102.481 73.9844 101.701 75.0388 100.619 75.692ZM95.8857 67.846C95.1341 68.2995 94.5331 68.9646 94.1589 69.7573C93.7847 70.55 93.654 71.4347 93.7834 72.2994C93.9127 73.1642 94.2963 73.9702 94.8856 74.6155C95.4749 75.2609 96.2435 75.7166 97.0942 75.925C97.9448 76.1334 98.8394 76.0852 99.6646 75.7864C100.49 75.4876 101.209 74.9517 101.731 74.2465C102.252 73.5413 102.553 72.6983 102.596 71.8243C102.638 70.9503 102.42 70.0845 101.968 69.3363C101.363 68.333 100.382 67.6124 99.2416 67.3329C98.1008 67.0535 96.8937 67.2381 95.8858 67.8461L95.8857 67.846Z" fill="#3F3D56"/>
<path d="M96.8872 74.4104C96.8285 74.4458 96.7607 74.4631 96.6924 74.46C96.6241 74.457 96.5582 74.4339 96.5032 74.3935C96.4482 74.3532 96.4065 74.2974 96.3833 74.2332C96.3601 74.1691 96.3566 74.0995 96.373 74.0331L96.9731 71.6178C96.9823 71.58 96.9989 71.5444 97.0219 71.513C97.045 71.4816 97.074 71.4551 97.1074 71.435C97.1406 71.4148 97.1775 71.4014 97.2159 71.3955C97.2544 71.3896 97.2935 71.3914 97.3312 71.4007L98.4507 71.675C98.4733 71.6806 98.4968 71.6816 98.5198 71.6781C98.5429 71.6746 98.565 71.6665 98.585 71.6544C98.6049 71.6424 98.6222 71.6265 98.636 71.6078C98.6497 71.5891 98.6597 71.5679 98.6652 71.5454L99.0587 69.9649C99.0606 69.9574 99.061 69.9495 99.0599 69.9419C99.0587 69.9342 99.0561 69.9269 99.0521 69.9202C99.0481 69.9136 99.0428 69.9078 99.0365 69.9032C99.0303 69.8987 99.0232 69.8954 99.0157 69.8935L98.5046 69.7688C98.4706 69.7605 98.4398 69.7423 98.4162 69.7165C98.3926 69.6908 98.3772 69.6585 98.372 69.624C98.3667 69.5894 98.3719 69.554 98.3868 69.5223C98.4017 69.4905 98.4257 69.4639 98.4557 69.4456L99.5902 68.7612C99.6103 68.7488 99.6326 68.7405 99.6559 68.7367C99.6792 68.733 99.703 68.7339 99.7259 68.7395C99.7488 68.745 99.7704 68.7551 99.7893 68.769C99.8082 68.783 99.8242 68.8006 99.8362 68.8207L100.517 69.95C100.536 69.98 100.544 70.0146 100.543 70.0496C100.541 70.0846 100.529 70.1183 100.508 70.1466C100.487 70.1748 100.458 70.1963 100.425 70.2082C100.392 70.2202 100.356 70.2221 100.322 70.2137L99.8102 70.0883C99.8027 70.0864 99.7948 70.086 99.7872 70.0872C99.7795 70.0884 99.7721 70.0911 99.7654 70.0951C99.7588 70.0991 99.753 70.1044 99.7483 70.1106C99.7437 70.1169 99.7404 70.124 99.7385 70.1315L99.2033 72.2677C99.194 72.3054 99.1773 72.3408 99.1542 72.3721C99.1311 72.4033 99.102 72.4296 99.0687 72.4496C99.0354 72.4698 98.9985 72.4832 98.9601 72.4891C98.9216 72.495 98.8825 72.4932 98.8448 72.4839L97.7246 72.2094C97.679 72.1994 97.6313 72.2073 97.5912 72.2314C97.5511 72.2556 97.5219 72.2942 97.5095 72.3392L97.0453 74.1969C97.0344 74.2411 97.0148 74.2828 96.9876 74.3194C96.9605 74.3561 96.9264 74.387 96.8872 74.4104Z" fill="#6C63FF"/>
<path d="M114.138 61.3835L105.147 66.8073C104.949 66.9272 104.711 66.9636 104.486 66.9085C104.261 66.8534 104.068 66.7114 103.948 66.5136C103.829 66.3158 103.793 66.0785 103.85 65.8539C103.906 65.6292 104.049 65.4357 104.248 65.3158L113.238 59.892C113.437 59.7721 113.675 59.7357 113.9 59.7908C114.125 59.8459 114.318 59.988 114.437 60.1858C114.557 60.3835 114.592 60.6208 114.536 60.8455C114.48 61.0701 114.337 61.2636 114.138 61.3835Z" fill="#E6E6E6"/>
<path d="M122.926 59.3387L106.419 69.2967C106.098 69.4904 105.637 69.3131 105.389 68.9012C105.14 68.4893 105.199 67.9986 105.519 67.8052L122.026 57.8472C122.347 57.6535 122.808 57.8308 123.056 58.2427C123.305 58.6545 123.246 59.1452 122.926 59.3387Z" fill="#E6E6E6"/>
<path d="M74.2888 105.174C74.6558 104.952 74.7746 104.477 74.5542 104.112C74.3339 103.746 73.8578 103.63 73.4908 103.851C73.1238 104.072 73.005 104.548 73.2253 104.913C73.4457 105.279 73.9218 105.395 74.2888 105.174Z" fill="#6C63FF"/>
<path d="M127.416 65.853L132.779 74.7433L69.0566 113.186L66.2327 108.505C66.5526 108.037 66.8756 107.569 67.2066 107.105C68.6183 105.12 70.1963 103.107 72.2543 101.472C73.2304 100.693 74.2983 100.036 75.434 99.5154C76.633 98.9712 77.8698 98.5981 79.0972 98.2334C80.3078 97.8742 81.5263 97.5218 82.7161 97.0194C83.8783 96.5213 84.9743 95.8808 85.9789 95.1129C87.8962 93.6585 89.4683 91.9124 91.0662 90.2268C92.6743 88.5311 94.3587 86.8293 96.4065 85.5036C98.4276 84.1941 100.672 83.3119 102.886 82.5611C107.401 81.0292 112.254 79.8699 115.94 76.4336C119.683 72.9458 122.057 67.9646 127.274 65.8703C127.318 65.8496 127.368 65.8435 127.416 65.8529L127.416 65.853Z" fill="#F2F2F2"/>
<path d="M129.503 69.2375C129.494 69.2834 129.473 69.3261 129.441 69.3611C129.41 69.3962 129.37 69.4225 129.326 69.4372C128.7 69.6889 128.096 69.9949 127.523 70.3519C122.887 73.2289 120.907 78.0679 116.58 81.2234C112.679 84.068 107.944 84.9837 103.622 86.5763C101.377 87.4037 99.179 88.4502 97.2668 89.9621C95.3686 91.4616 93.8009 93.2219 92.1848 94.9198C90.6281 96.5548 88.9767 98.1982 86.9722 99.4395C84.7687 100.805 82.3777 101.361 80.0204 102.108C78.7945 102.495 77.5727 102.954 76.4263 103.619C75.3243 104.269 74.3039 105.049 73.3868 105.941C71.4973 107.755 70.0574 109.824 68.6665 111.857C68.6415 111.895 68.607 111.926 68.5664 111.946C68.5295 111.968 68.4874 111.979 68.4448 111.977C68.4023 111.976 68.3609 111.963 68.3257 111.939C68.2987 111.912 68.2829 111.876 68.2815 111.838C68.28 111.799 68.293 111.762 68.3179 111.733L68.3818 111.64C68.7006 111.173 69.0225 110.706 69.3525 110.242C70.7595 108.26 72.333 106.25 74.3851 104.619C75.3587 103.841 76.4242 103.185 77.5575 102.666C78.7538 102.124 79.9881 101.752 81.2128 101.389C82.4209 101.031 83.6368 100.68 84.8238 100.18C85.9834 99.6831 87.0769 99.0442 88.0789 98.2779C89.9915 96.8263 91.5586 95.0831 93.1518 93.4004C94.7552 91.7076 96.4342 90.0089 98.4774 88.6861C100.493 87.3797 102.733 86.5004 104.943 85.7524C109.447 84.2264 114.291 83.073 117.966 79.6432C121.699 76.1616 124.063 71.1863 129.268 69.0989C129.313 69.0782 129.363 69.0721 129.41 69.0816C129.443 69.0904 129.471 69.1116 129.488 69.1407C129.506 69.1698 129.511 69.2045 129.503 69.2375Z" fill="#6C63FF"/>
<path d="M99.0029 89.6286C99.3699 89.4072 99.4887 88.9316 99.2684 88.5664C99.048 88.2011 98.5719 88.0845 98.2049 88.3058C97.838 88.5272 97.7191 89.0028 97.9395 89.3681C98.1598 89.7333 98.6359 89.85 99.0029 89.6286Z" fill="#6C63FF"/>
<path d="M127.981 70.9869C128.348 70.7656 128.467 70.29 128.246 69.9247C128.026 69.5594 127.55 69.4428 127.183 69.6642C126.816 69.8856 126.697 70.3611 126.917 70.7264C127.138 71.0917 127.614 71.2083 127.981 70.9869Z" fill="#6C63FF"/>
</g>
<g clip-path="url(#clip2_3_431)">
<path d="M423.051 92.2019C422.995 92.3205 423.016 92.4463 423.097 92.4841L495.915 126.478C495.997 126.516 496.106 126.451 496.161 126.332C496.217 126.213 496.196 126.087 496.115 126.05L423.297 92.056C423.216 92.0183 423.106 92.0832 423.051 92.2019Z" fill="#CCCCCC"/>
<path d="M449.727 103.796L447.127 102.582L446.913 103.041L449.513 104.254L449.727 103.796Z" fill="#B6B3C5"/>
<path d="M472.708 114.617L470.108 113.403L469.894 113.862L472.494 115.075L472.708 114.617Z" fill="#B6B3C5"/>
<path d="M473.194 89.8846C472.641 90.6928 471.818 91.2781 470.873 91.5364C469.928 91.7946 468.922 91.7088 468.035 91.2945C467.147 90.8801 466.435 90.164 466.026 89.2737C465.618 88.3835 465.538 87.377 465.802 86.4337L456.346 82.0193L446.779 102.512L473.084 114.792L482.651 94.2992L473.194 89.8846Z" fill="#D6D6E3"/>
<path d="M473.918 113.204L447.614 100.925L447.281 101.638L473.585 113.918L473.918 113.204Z" fill="#090814"/>
<path d="M522.15 113.39L416.347 63.9986C415.959 63.8167 415.658 63.4881 415.511 63.0848C415.365 62.6815 415.384 62.2366 415.565 61.8476L443.753 1.46636C443.935 1.07773 444.264 0.777136 444.667 0.63053C445.07 0.483924 445.515 0.503284 445.904 0.684361L551.706 50.0758C552.095 50.2578 552.396 50.5864 552.542 50.9897C552.689 51.3929 552.669 51.8378 552.488 52.2268L524.301 112.608C524.119 112.997 523.79 113.297 523.387 113.444C522.984 113.59 522.539 113.571 522.15 113.39Z" fill="#090814"/>
<path d="M445.955 3.68878L549.491 52.0221L522.219 110.443L418.683 62.1096L445.955 3.68878Z" fill="#090814"/>
<path d="M469.648 20.5533L479.446 25.1273C479.591 25.1947 479.702 25.3166 479.757 25.4664C479.811 25.6161 479.804 25.7814 479.736 25.9257L479.228 27.0144C479.161 27.1588 479.039 27.2704 478.889 27.3249C478.739 27.3793 478.574 27.372 478.43 27.3046L468.632 22.7306C468.487 22.6632 468.376 22.5412 468.321 22.3915C468.267 22.2418 468.274 22.0765 468.342 21.9322L468.85 20.8435C468.917 20.6991 469.039 20.5875 469.189 20.533C469.339 20.4786 469.504 20.4859 469.648 20.5533Z" fill="#F2F2F2"/>
<path d="M487.756 34.3101L468.16 25.1621C467.558 24.8814 466.843 25.1413 466.563 25.7425L461.989 35.5406C461.708 36.1418 461.968 36.8568 462.569 37.1375L482.165 46.2855C482.766 46.5662 483.481 46.3063 483.762 45.705L488.336 35.907C488.617 35.3057 488.357 34.5908 487.756 34.3101Z" fill="#6C63FF"/>
<path d="M512.795 45.9992L493.199 36.8512C492.598 36.5705 491.883 36.8304 491.602 37.4316L487.028 47.2297C486.747 47.8309 487.007 48.5459 487.609 48.8266L507.205 57.9746C507.806 58.2552 508.521 57.9954 508.802 57.3941L513.376 47.5961C513.656 46.9948 513.396 46.2799 512.795 45.9992Z" fill="#6C63FF"/>
<path d="M525.057 82.2195L457.559 50.7097C456.357 50.1484 454.927 50.6681 454.365 51.8706L452.333 56.2253C451.771 57.4278 452.291 58.8577 453.493 59.4191L520.991 90.9289C522.194 91.4902 523.623 90.9705 524.185 89.768L526.218 85.4133C526.779 84.2108 526.259 82.7809 525.057 82.2195Z" fill="#3F3D56"/>
<path d="M530.139 71.3328L462.641 39.823C461.439 39.2617 460.009 39.7814 459.448 40.9839L457.415 45.3386C456.853 46.5411 457.373 47.971 458.576 48.5324L526.073 80.0421C527.276 80.6035 528.706 80.0838 529.267 78.8812L531.3 74.5266C531.861 73.324 531.342 71.8941 530.139 71.3328Z" fill="#3F3D56"/>
<path d="M464.069 17.9486L450.46 11.5959C450.16 11.4555 449.802 11.5855 449.662 11.8861L427.3 59.7876C427.16 60.0883 427.29 60.4457 427.59 60.5861L441.199 66.9389C441.499 67.0792 441.857 66.9493 441.997 66.6486L464.359 18.7471C464.499 18.4465 464.369 18.089 464.069 17.9486Z" fill="#232139"/>
<path d="M454.951 16.1783L457.672 17.4488C457.889 17.5499 458.057 17.7329 458.138 17.9575C458.22 18.1821 458.209 18.4299 458.108 18.6465L457.854 19.1908C457.753 19.4074 457.57 19.5749 457.345 19.6565C457.12 19.7382 456.873 19.7272 456.656 19.6262L453.934 18.3556C453.718 18.2545 453.55 18.0715 453.469 17.8469C453.387 17.6223 453.398 17.3745 453.499 17.1579L453.753 16.6136C453.854 16.397 454.037 16.2295 454.262 16.1479C454.486 16.0662 454.734 16.0772 454.951 16.1783Z" fill="#6C63FF"/>
<path d="M431.528 57.1208L441.327 61.6948C441.471 61.7622 441.583 61.8842 441.637 62.0339C441.691 62.1836 441.684 62.3489 441.617 62.4932L441.109 63.5819C441.041 63.7263 440.919 63.8379 440.769 63.8924C440.62 63.9468 440.454 63.9395 440.31 63.8721L430.512 59.2981C430.368 59.2307 430.256 59.1087 430.202 58.959C430.147 58.8093 430.154 58.644 430.222 58.4997L430.73 57.411C430.797 57.2666 430.919 57.155 431.069 57.1005C431.219 57.0461 431.384 57.0534 431.528 57.1208Z" fill="#6C63FF"/>
<path d="M458.633 23.2011L449.924 19.1353C449.323 18.8546 448.608 19.1145 448.327 19.7158C448.046 20.317 448.306 21.032 448.908 21.3127L457.617 25.3784C458.218 25.6591 458.933 25.3993 459.214 24.798C459.495 24.1967 459.235 23.4818 458.633 23.2011Z" fill="white"/>
<path d="M457.109 26.4671L448.399 22.4013C447.798 22.1206 447.083 22.3805 446.802 22.9818C446.522 23.583 446.782 24.298 447.383 24.5787L456.092 28.6444C456.694 28.9251 457.408 28.6652 457.689 28.064C457.97 27.4627 457.71 26.7478 457.109 26.4671Z" fill="#3F3D56"/>
<path d="M455.584 29.7331L446.875 25.6673C446.273 25.3867 445.558 25.6465 445.278 26.2478C444.997 26.849 445.257 27.564 445.858 27.8447L454.568 31.9105C455.169 32.1911 455.884 31.9313 456.165 31.33C456.445 30.7288 456.185 30.0138 455.584 29.7331Z" fill="#3F3D56"/>
<path d="M454.059 32.9991L445.35 28.9334C444.749 28.6527 444.034 28.9126 443.753 29.5138C443.472 30.1151 443.732 30.83 444.334 31.1107L453.043 35.1765C453.644 35.4572 454.359 35.1973 454.64 34.596C454.921 33.9948 454.661 33.2798 454.059 32.9991Z" fill="#3F3D56"/>
<path d="M452.535 36.2652L443.825 32.1994C443.224 31.9187 442.509 32.1786 442.228 32.7798C441.948 33.3811 442.208 34.096 442.809 34.3767L451.518 38.4425C452.12 38.7232 452.835 38.4633 453.115 37.8621C453.396 37.2608 453.136 36.5458 452.535 36.2652Z" fill="#3F3D56"/>
<path d="M530.614 49.0137L540.412 53.5877C540.556 53.6551 540.668 53.7771 540.722 53.9268C540.777 54.0765 540.769 54.2418 540.702 54.3861L540.194 55.4748C540.126 55.6192 540.004 55.7309 539.855 55.7853C539.705 55.8397 539.54 55.8324 539.395 55.765L529.597 51.191C529.453 51.1236 529.341 51.0017 529.287 50.8519C529.232 50.7022 529.24 50.537 529.307 50.3926L529.815 49.3039C529.883 49.1596 530.005 49.0479 530.154 48.9934C530.304 48.939 530.469 48.9463 530.614 49.0137Z" fill="#6C63FF"/>
<path d="M537.835 57.6883L518.238 48.5403C517.637 48.2596 516.922 48.5195 516.642 49.1207L512.068 58.9188C511.787 59.52 512.047 60.235 512.648 60.5156L532.244 69.6636C532.845 69.9443 533.56 69.6844 533.841 69.0832L538.415 59.2851C538.696 58.6839 538.436 57.9689 537.835 57.6883Z" fill="#6C63FF"/>
<g opacity="0.499">
<path d="M520.596 95.7348C518.921 93.7635 515.446 91.9179 512.249 90.7858C509.052 89.6537 505.981 89.064 502.874 88.2976C499.767 87.5312 496.402 86.4996 493.437 84.8096C490.574 83.1777 488.512 81.1819 486.282 79.2985C484.053 77.4151 481.21 75.3921 478.141 74.437C474.342 73.2543 471.905 74.181 468.798 74.143C465.546 74.103 461.426 72.964 457.554 71.0347C453.683 69.1054 450.462 66.5865 448.767 64.1613L446.348 69.3436L517.239 102.438L520.596 95.7348Z" fill="#6C63FF"/>
</g>
<path d="M448.631 64.2758C450.834 67.5032 455.667 70.8885 460.907 72.8052C463.544 73.7697 466.133 74.332 468.372 74.4262C470.395 74.5056 471.981 74.1435 473.845 74.0618C474.841 74.0091 475.84 74.0729 476.821 74.2521C478.168 74.5228 479.469 74.9803 480.689 75.6111C483.529 77.0485 485.652 78.9591 487.656 80.7282C489.603 82.4475 491.677 84.2035 494.423 85.5855C497.312 87.0395 500.38 87.8979 503.234 88.5699C506.156 89.2577 509.059 89.8086 512.093 90.8654C514.564 91.7261 517.227 93.0246 519.083 94.5736C519.499 94.9174 519.884 95.2976 520.232 95.7096C520.401 95.9113 520.817 95.9204 520.649 95.7193C519.369 94.1918 517.104 92.7622 514.761 91.6851C512.025 90.4282 509.252 89.6923 506.591 89.0737C503.633 88.3861 500.684 87.806 497.602 86.6889C496.055 86.1391 494.562 85.4446 493.144 84.6148C491.933 83.8792 490.78 83.0498 489.698 82.1343C487.612 80.4007 485.829 78.6071 483.407 76.9541C481.181 75.4343 478.549 74.1985 476.076 73.8573C473.948 73.5636 472.304 73.8538 470.6 74.0188C469.637 74.1232 468.668 74.1482 467.702 74.0935C466.42 73.9985 465.148 73.7906 463.903 73.4722C461.134 72.7692 458.476 71.689 456.002 70.2618C453.583 68.8589 451.518 67.233 450.059 65.5835C449.716 65.1973 449.397 64.7903 449.104 64.3648C448.97 64.1685 448.496 64.0773 448.632 64.2767L448.631 64.2758Z" fill="#6C63FF"/>
<path d="M479.805 76.0097C480.2 76.1941 480.67 76.0233 480.854 75.6283C481.039 75.2333 480.868 74.7635 480.473 74.5791C480.078 74.3947 479.608 74.5655 479.424 74.9605C479.239 75.3555 479.41 75.8252 479.805 76.0097Z" fill="#6C63FF"/>
<path d="M517.881 94.0458C518.276 94.2302 518.745 94.0594 518.93 93.6644C519.114 93.2694 518.943 92.7997 518.548 92.6152C518.153 92.4308 517.684 92.6016 517.499 92.9966C517.315 93.3916 517.486 93.8613 517.881 94.0458Z" fill="#6C63FF"/>
<path d="M452.691 69.0512C453.086 69.2356 453.556 69.0649 453.74 68.6698C453.925 68.2748 453.754 67.8051 453.359 67.6207C452.964 67.4363 452.494 67.607 452.31 68.002C452.125 68.3971 452.296 68.8668 452.691 69.0512Z" fill="#6C63FF"/>
</g>
<g clip-path="url(#clip3_3_431)">
<path d="M360.215 141.314H226.441C224.145 141.312 221.944 140.399 220.32 138.775C218.696 137.152 217.783 134.951 217.78 132.655V27.6146C217.782 25.9327 218.451 24.3202 219.641 23.1309C220.83 21.9416 222.443 21.2725 224.125 21.2706H362.421C364.133 21.2725 365.773 21.9531 366.984 23.163C368.194 24.3729 368.874 26.0132 368.876 27.7242V132.655C368.874 134.951 367.96 137.152 366.337 138.775C364.713 140.399 362.511 141.312 360.215 141.314Z" fill="#F2F2F2"/>
<path d="M234.84 132.655H351.816C354.043 132.655 356.18 131.771 357.755 130.196C359.33 128.621 360.215 126.485 360.215 124.258V43.6766C360.215 41.4496 359.33 39.3139 357.755 37.7392C356.18 36.1644 354.043 35.2798 351.816 35.2798H234.84C232.613 35.2798 230.477 36.1644 228.901 37.7392C227.326 39.3139 226.441 41.4496 226.441 43.6766V124.258C226.441 126.485 227.326 128.621 228.901 130.196C230.477 131.771 232.613 132.655 234.84 132.655Z" fill="white"/>
<path d="M368.756 27.1192H217.658V22.7107C217.662 20.4073 218.579 18.1993 220.209 16.5711C221.838 14.9428 224.047 14.0273 226.351 14.0254H360.063C362.367 14.0273 364.576 14.9428 366.206 16.571C367.835 18.1993 368.752 20.4073 368.756 22.7107V27.1192Z" fill="#CCCCCC"/>
<path d="M233.457 22.8333C234.698 22.8333 235.705 21.8269 235.705 20.5854C235.705 19.3439 234.698 18.3375 233.457 18.3375C232.215 18.3375 231.208 19.3439 231.208 20.5854C231.208 21.8269 232.215 22.8333 233.457 22.8333Z" fill="white"/>
<path d="M241.991 22.8333C243.233 22.8333 244.24 21.8269 244.24 20.5854C244.24 19.3439 243.233 18.3375 241.991 18.3375C240.749 18.3375 239.743 19.3439 239.743 20.5854C239.743 21.8269 240.749 22.8333 241.991 22.8333Z" fill="white"/>
<path d="M250.526 22.8333C251.768 22.8333 252.775 21.8269 252.775 20.5854C252.775 19.3439 251.768 18.3375 250.526 18.3375C249.284 18.3375 248.278 19.3439 248.278 20.5854C248.278 21.8269 249.284 22.8333 250.526 22.8333Z" fill="white"/>
<path d="M243.448 73.0423H237.655C237.341 73.0419 237.04 72.917 236.818 72.6949C236.596 72.4728 236.471 72.1717 236.47 71.8576V66.0659C236.471 65.7518 236.596 65.4507 236.818 65.2286C237.04 65.0065 237.341 64.8816 237.655 64.8812H243.448C243.763 64.8816 244.064 65.0065 244.286 65.2286C244.508 65.4507 244.633 65.7518 244.633 66.0659V71.8576C244.633 72.1717 244.508 72.4728 244.286 72.6949C244.064 72.917 243.763 73.0419 243.448 73.0423Z" fill="#6C63FF"/>
<path d="M243.448 88.048H237.655C237.341 88.0476 237.04 87.9227 236.818 87.7006C236.596 87.4785 236.471 87.1774 236.47 86.8633V81.0716C236.471 80.7575 236.596 80.4564 236.818 80.2343C237.04 80.0122 237.341 79.8873 237.655 79.887H243.448C243.763 79.8873 244.064 80.0122 244.286 80.2343C244.508 80.4564 244.633 80.7575 244.633 81.0716V86.8633C244.633 87.1774 244.508 87.4785 244.286 87.7006C244.064 87.9227 243.763 88.0476 243.448 88.048Z" fill="#3F3D56"/>
<path d="M243.448 103.054H237.655C237.341 103.053 237.04 102.928 236.818 102.706C236.596 102.484 236.471 102.183 236.47 101.869V96.0774C236.471 95.7633 236.596 95.4622 236.818 95.2401C237.04 95.018 237.341 94.8931 237.655 94.8927H243.448C243.763 94.8931 244.064 95.018 244.286 95.2401C244.508 95.4622 244.633 95.7633 244.633 96.0774V101.869C244.633 102.183 244.508 102.484 244.286 102.706C244.064 102.928 243.763 103.053 243.448 103.054Z" fill="#CCCCCC"/>
<path d="M281.367 70.1464H253.455C253.141 70.1457 252.84 70.0206 252.619 69.7985C252.397 69.5764 252.272 69.2755 252.272 68.9617C252.272 68.648 252.397 68.347 252.619 68.1249C252.84 67.9028 253.141 67.7777 253.455 67.7771H281.367C281.523 67.7767 281.678 67.8071 281.822 67.8665C281.966 67.9259 282.097 68.0131 282.207 68.1232C282.317 68.2332 282.405 68.3639 282.464 68.5078C282.524 68.6517 282.555 68.806 282.555 68.9617C282.555 69.1175 282.524 69.2718 282.464 69.4157C282.405 69.5596 282.317 69.6903 282.207 69.8003C282.097 69.9103 281.966 69.9976 281.822 70.0569C281.678 70.1163 281.523 70.1467 281.367 70.1464Z" fill="#CCCCCC"/>
<path d="M281.367 85.1521H253.455C253.141 85.1515 252.84 85.0264 252.619 84.8043C252.397 84.5822 252.272 84.2812 252.272 83.9675C252.272 83.6537 252.397 83.3528 252.619 83.1307C252.84 82.9086 253.141 82.7835 253.455 82.7828H281.367C281.682 82.7828 281.983 82.9076 282.205 83.1298C282.428 83.352 282.552 83.6533 282.552 83.9675C282.552 84.2817 282.428 84.583 282.205 84.8052C281.983 85.0273 281.682 85.1521 281.367 85.1521Z" fill="#CCCCCC"/>
<path d="M281.367 100.158H253.455C253.141 100.157 252.84 100.032 252.619 99.81C252.397 99.5879 252.272 99.287 252.272 98.9732C252.272 98.6595 252.397 98.3585 252.619 98.1364C252.84 97.9143 253.141 97.7892 253.455 97.7886H281.367C281.523 97.7882 281.678 97.8187 281.822 97.878C281.966 97.9374 282.097 98.0246 282.207 98.1347C282.317 98.2447 282.405 98.3754 282.464 98.5193C282.524 98.6632 282.555 98.8175 282.555 98.9732C282.555 99.129 282.524 99.2833 282.464 99.4272C282.405 99.5711 282.317 99.7018 282.207 99.8118C282.097 99.9218 281.966 100.009 281.822 100.068C281.678 100.128 281.523 100.158 281.367 100.158Z" fill="#CCCCCC"/>
<path d="M350.139 84.3437C350.169 83.8457 350.186 83.3442 350.186 82.8387C350.186 76.2528 347.569 69.9366 342.911 65.2797C338.253 60.6227 331.935 58.0064 325.347 58.0064V84.3437H350.139Z" fill="#6C63FF"/>
<path d="M323.466 86.6012V60.2639C318.617 60.2637 313.875 61.6822 309.823 64.3444C305.771 67.0067 302.587 70.7963 300.664 75.2459C298.74 79.6955 298.162 84.6106 298.999 89.3851C299.837 94.1595 302.053 98.5846 305.376 102.115C308.699 105.644 312.983 108.125 317.699 109.25C322.415 110.375 327.357 110.096 331.917 108.447C336.476 106.797 340.452 103.85 343.356 99.9681C346.26 96.0862 347.964 91.4396 348.258 86.6012H323.466Z" fill="#3F3D56"/>
<path d="M492.742 376.025H93.7923C93.6531 376.025 93.5196 375.97 93.4211 375.872C93.3227 375.773 93.2674 375.64 93.2674 375.501C93.2674 375.361 93.3227 375.228 93.4211 375.13C93.5196 375.031 93.6531 374.976 93.7923 374.976H492.742C492.882 374.976 493.015 375.031 493.114 375.13C493.212 375.228 493.267 375.361 493.267 375.501C493.267 375.64 493.212 375.773 493.114 375.872C493.015 375.97 492.882 376.025 492.742 376.025Z" fill="#CCCCCC"/>
<path d="M358.197 230.729C358.372 230.966 358.528 231.217 358.664 231.48L384.97 234.437L388.796 229.269L397.352 234.022L389.82 246.575L357.592 238.119C356.771 238.907 355.731 239.427 354.608 239.61C353.485 239.792 352.333 239.629 351.305 239.141C350.278 238.653 349.423 237.864 348.855 236.878C348.287 235.893 348.032 234.758 348.125 233.625C348.218 232.491 348.654 231.413 349.374 230.533C350.095 229.653 351.067 229.013 352.16 228.699C353.253 228.384 354.417 228.41 355.495 228.773C356.573 229.135 357.516 229.817 358.197 230.729Z" fill="#FFB8B8"/>
<path d="M223.969 223.939C223.304 224.33 222.561 224.57 221.793 224.643C221.025 224.716 220.25 224.619 219.523 224.36C218.796 224.101 218.135 223.686 217.585 223.144C217.036 222.602 216.613 221.946 216.345 221.223L197.59 221.614L202.786 213.368L219.799 214.261C221.044 213.891 222.382 213.991 223.559 214.542C224.736 215.092 225.67 216.055 226.184 217.248C226.698 218.441 226.756 219.781 226.348 221.014C225.94 222.247 225.094 223.288 223.969 223.939Z" fill="#FFB8B8"/>
<path d="M215.727 221.578C215.578 222.075 215.27 222.51 214.849 222.814C214.429 223.119 213.921 223.277 213.402 223.265L179.078 222.393L147.999 213.194C147.144 212.94 146.347 212.52 145.656 211.956C144.965 211.393 144.393 210.698 143.972 209.911C143.552 209.124 143.293 208.262 143.209 207.374C143.126 206.487 143.219 205.591 143.485 204.74C143.75 203.889 144.183 203.099 144.756 202.416C145.33 201.733 146.034 201.171 146.826 200.763C147.619 200.354 148.485 200.108 149.375 200.037C150.264 199.966 151.158 200.073 152.005 200.35L180.084 209.554L213.786 212.806C214.376 212.866 214.923 213.144 215.318 213.587C215.713 214.029 215.928 214.604 215.921 215.197L215.823 220.944C215.82 221.159 215.788 221.372 215.727 221.578Z" fill="#3F3D56"/>
<path d="M165.95 369.105L172.386 369.105L175.447 344.288L165.949 344.289L165.95 369.105Z" fill="#FFB8B8"/>
<path d="M164.309 367.004L176.983 367.004H176.983C178.044 367.004 179.094 367.213 180.074 367.618C181.054 368.024 181.944 368.619 182.694 369.369C183.444 370.119 184.039 371.009 184.445 371.989C184.851 372.968 185.06 374.018 185.06 375.079V375.341L164.309 375.342L164.309 367.004Z" fill="#2F2E41"/>
<path d="M147.053 369.105L153.488 369.105L156.55 344.288L147.052 344.289L147.053 369.105Z" fill="#FFB8B8"/>
<path d="M145.411 367.004L158.085 367.004H158.085C159.146 367.004 160.196 367.213 161.176 367.618C162.156 368.024 163.047 368.619 163.797 369.369C164.547 370.119 165.142 371.009 165.547 371.989C165.953 372.968 166.162 374.018 166.162 375.079V375.341L145.411 375.342L145.411 367.004Z" fill="#2F2E41"/>
<path d="M142.734 268.812L144.27 359.966C144.275 360.255 144.339 360.54 144.459 360.802C144.579 361.065 144.752 361.3 144.967 361.493C145.182 361.686 145.434 361.832 145.708 361.923C145.982 362.014 146.272 362.048 146.56 362.021L154.091 361.337C154.585 361.292 155.047 361.074 155.395 360.721C155.743 360.368 155.956 359.903 155.994 359.409L160.403 302.549C160.413 302.416 160.474 302.291 160.573 302.201C160.673 302.111 160.803 302.062 160.937 302.065C161.07 302.068 161.198 302.121 161.294 302.215C161.39 302.309 161.446 302.436 161.451 302.57L163.654 360.731C163.675 361.274 163.905 361.787 164.296 362.164C164.687 362.541 165.209 362.751 165.753 362.751H173.829C174.364 362.751 174.878 362.547 175.268 362.181C175.657 361.814 175.892 361.313 175.925 360.78L181.579 268.287L147.983 259.89L142.734 268.812Z" fill="#2F2E41"/>
<path d="M167.102 183.219C174.222 183.219 179.995 177.448 179.995 170.329C179.995 163.211 174.222 157.44 167.102 157.44C159.981 157.44 154.209 163.211 154.209 170.329C154.209 177.448 159.981 183.219 167.102 183.219Z" fill="#FFB8B8"/>
<path d="M181.084 272.191C181.072 272.191 181.059 272.191 181.047 272.191L150.899 271.727C150.32 271.718 149.764 271.496 149.337 271.104C148.911 270.712 148.643 270.177 148.585 269.601L148.244 266.188C148.238 266.123 148.207 266.063 148.159 266.019C148.111 265.976 148.048 265.952 147.983 265.952C147.918 265.952 147.855 265.976 147.807 266.019C147.758 266.063 147.728 266.123 147.722 266.188L147.369 269.713C147.314 270.265 147.067 270.78 146.67 271.167C146.274 271.555 145.753 271.79 145.2 271.832L143.069 271.996C142.694 272.025 142.317 271.964 141.97 271.817C141.623 271.671 141.316 271.444 141.075 271.155C140.833 270.866 140.664 270.523 140.582 270.156C140.5 269.788 140.508 269.407 140.603 269.042L142.438 262.05C146.234 247.517 146.539 232.293 143.329 217.62L142.417 213.475C141.73 210.378 142.045 207.143 143.315 204.236C144.586 201.329 146.748 198.901 149.488 197.302L155.41 193.832L158.096 189.803C158.616 189.026 159.316 188.385 160.136 187.935C160.957 187.485 161.873 187.24 162.809 187.22C166.557 187.138 172.985 187.824 174.193 193.303C177.186 194.325 179.779 196.27 181.597 198.857C183.416 201.445 184.367 204.542 184.315 207.704L183.445 269.862C183.436 270.483 183.184 271.075 182.742 271.51C182.3 271.946 181.705 272.191 181.084 272.191Z" fill="#3F3D56"/>
<path d="M166.093 177.759C166.04 179.581 164.775 180.635 163.221 181.59C161.668 182.544 159.852 182.958 158.073 183.357C157.834 183.484 157.566 183.547 157.296 183.541C157.025 183.534 156.761 183.458 156.529 183.319C156.296 183.181 156.104 182.985 155.969 182.75C155.834 182.516 155.763 182.25 155.761 181.98L154.129 175.775C153.552 173.793 153.132 171.768 152.873 169.72C152.48 165.78 153.414 161.54 156.165 158.691C158.916 155.842 163.688 154.829 166.985 157.025C170.898 152.029 188.782 163.067 184.37 166.541C183.585 167.159 182.386 166.377 181.389 166.301C180.393 166.225 179.277 166.4 178.644 167.173C177.817 168.183 178.177 169.687 177.837 170.947C177.696 171.39 177.468 171.801 177.168 172.156C176.867 172.511 176.499 172.803 176.085 173.015C175.671 173.228 175.219 173.356 174.756 173.392C174.292 173.429 173.826 173.374 173.383 173.229C172.56 172.823 171.785 172.325 171.074 171.745C170.31 171.236 169.344 170.86 168.484 171.181C167.35 171.604 166.947 172.992 166.845 174.197C166.672 175.4 166.421 176.589 166.093 177.759Z" fill="#2F2E41"/>
<path opacity="0.2" d="M169.104 212.305L171.204 238.02L182.227 264.785L165.955 238.545L169.104 212.305Z" fill="black"/>
<path d="M304.721 353.123L189.671 284.885C187.697 283.711 186.27 281.803 185.702 279.578C185.134 277.354 185.472 274.995 186.641 273.019L240.25 182.681C241.11 181.235 242.508 180.19 244.138 179.773C245.768 179.357 247.497 179.605 248.945 180.461L367.884 251.006C369.355 251.881 370.419 253.303 370.842 254.961C371.266 256.619 371.014 258.377 370.142 259.849L316.589 350.094C315.416 352.067 313.507 353.494 311.282 354.062C309.057 354.63 306.697 354.292 304.721 353.123Z" fill="#F2F2F2"/>
<path d="M201.314 281.722L301.917 341.391C303.833 342.527 306.121 342.856 308.28 342.305C310.438 341.755 312.289 340.369 313.426 338.454L354.552 269.151C355.688 267.235 356.017 264.947 355.466 262.789C354.915 260.632 353.529 258.781 351.614 257.645L251.01 197.975C249.095 196.839 246.806 196.51 244.648 197.061C242.489 197.612 240.638 198.997 239.502 200.913L198.376 270.216C197.239 272.131 196.91 274.419 197.461 276.577C198.012 278.735 199.398 280.586 201.314 281.722Z" fill="white"/>
<path d="M370.347 259.267L240.398 182.193L242.648 178.401C243.827 176.422 245.742 174.991 247.975 174.421C250.207 173.852 252.575 174.192 254.557 175.366L369.554 243.572C371.534 244.749 372.967 246.663 373.538 248.895C374.108 251.126 373.77 253.493 372.597 255.476L370.347 259.267Z" fill="#CCCCCC"/>
<path d="M257.32 186.88C258.562 186.88 259.568 185.873 259.568 184.632C259.568 183.39 258.562 182.384 257.32 182.384C256.078 182.384 255.071 183.39 255.071 184.632C255.071 185.873 256.078 186.88 257.32 186.88Z" fill="white"/>
<path d="M264.66 191.233C265.902 191.233 266.909 190.227 266.909 188.985C266.909 187.744 265.902 186.737 264.66 186.737C263.418 186.737 262.411 187.744 262.411 188.985C262.411 190.227 263.418 191.233 264.66 191.233Z" fill="white"/>
<path d="M272 195.587C273.242 195.587 274.249 194.581 274.249 193.339C274.249 192.097 273.242 191.091 272 191.091C270.758 191.091 269.752 192.097 269.752 193.339C269.752 194.581 270.758 195.587 272 195.587Z" fill="white"/>
<path d="M341.434 272.424L341.287 272.671L342.767 273.548L342.913 273.302L341.434 272.424Z" fill="#E6E6E6"/>
<path d="M338.299 270.898L335.311 269.126L335.458 268.88L338.446 270.652L338.299 270.898ZM332.323 267.354L329.335 265.582L329.482 265.335L332.47 267.108L332.323 267.354ZM326.347 263.809L323.359 262.037L323.505 261.791L326.493 263.563L326.347 263.809ZM320.371 260.265L317.383 258.493L317.529 258.246L320.517 260.019L320.371 260.265ZM314.395 256.721L311.407 254.948L311.553 254.702L314.541 256.474L314.395 256.721ZM308.419 253.176L305.431 251.404L305.577 251.157L308.565 252.93L308.419 253.176ZM302.443 249.632L299.455 247.859L299.601 247.613L302.589 249.385L302.443 249.632ZM296.467 246.087L293.479 244.315L293.625 244.068L296.613 245.841L296.467 246.087ZM290.491 242.543L287.503 240.77L287.649 240.524L290.637 242.296L290.491 242.543ZM284.515 238.998L281.527 237.226L281.673 236.979L284.661 238.752L284.515 238.998ZM278.539 235.454L275.551 233.681L275.697 233.435L278.685 235.207L278.539 235.454ZM272.563 231.909L269.575 230.137L269.721 229.89L272.709 231.663L272.563 231.909ZM266.586 228.365L263.598 226.592L263.745 226.346L266.733 228.118L266.586 228.365ZM260.61 224.82L257.622 223.048L257.769 222.801L260.757 224.574L260.61 224.82ZM254.634 221.276L251.646 219.503L251.793 219.257L254.781 221.029L254.634 221.276ZM248.658 217.731L245.67 215.959L245.816 215.712L248.804 217.485L248.658 217.731Z" fill="#E6E6E6"/>
<path d="M241.349 213.063L241.203 213.309L242.682 214.186L242.828 213.94L241.349 213.063Z" fill="#E6E6E6"/>
<path d="M279.27 266.541L279.123 266.787L280.602 267.664L280.749 267.418L279.27 266.541Z" fill="#E6E6E6"/>
<path d="M276.179 265.041L273.236 263.295L273.382 263.049L276.326 264.795L276.179 265.041ZM270.292 261.549L267.349 259.803L267.495 259.557L270.438 261.303L270.292 261.549ZM264.405 258.057L261.461 256.311L261.608 256.065L264.551 257.811L264.405 258.057ZM258.518 254.566L255.574 252.82L255.72 252.573L258.664 254.319L258.518 254.566ZM252.63 251.074L249.687 249.328L249.833 249.081L252.777 250.827L252.63 251.074ZM246.743 247.582L243.799 245.836L243.946 245.589L246.889 247.335L246.743 247.582ZM240.856 244.09L237.912 242.344L238.058 242.098L241.002 243.843L240.856 244.09ZM234.968 240.598L232.025 238.852L232.171 238.606L235.115 240.352L234.968 240.598Z" fill="#E6E6E6"/>
<path d="M227.748 235.983L227.602 236.229L229.081 237.106L229.227 236.86L227.748 235.983Z" fill="#E6E6E6"/>
<path d="M243.993 260.278L243.846 260.524L245.325 261.401L245.472 261.155L243.993 260.278Z" fill="#E6E6E6"/>
<path d="M240.818 258.728L237.789 256.932L237.935 256.685L240.964 258.481L240.818 258.728ZM234.761 255.135L231.732 253.339L231.878 253.093L234.907 254.889L234.761 255.135ZM228.703 251.543L225.675 249.746L225.821 249.5L228.85 251.296L228.703 251.543Z" fill="#E6E6E6"/>
<path d="M221.313 246.826L221.167 247.073L222.646 247.95L222.792 247.704L221.313 246.826Z" fill="#E6E6E6"/>
<path d="M233.011 278.783L232.865 279.029L234.344 279.907L234.49 279.66L233.011 278.783Z" fill="#E6E6E6"/>
<path d="M229.836 277.233L226.808 275.437L226.954 275.19L229.983 276.987L229.836 277.233ZM223.779 273.641L220.751 271.844L220.897 271.598L223.925 273.394L223.779 273.641ZM217.722 270.048L214.693 268.252L214.84 268.005L217.868 269.801L217.722 270.048Z" fill="#E6E6E6"/>
<path d="M210.332 265.332L210.186 265.578L211.665 266.455L211.811 266.209L210.332 265.332Z" fill="#E6E6E6"/>
<path d="M218.413 270.713L303.667 321.279C305.733 322.501 308.199 322.854 310.525 322.26C312.85 321.667 314.845 320.175 316.072 318.113L340.982 276.136L340.811 276.041L284.294 290.463L279.817 272.938C279.735 272.614 279.579 272.314 279.362 272.06C279.144 271.806 278.871 271.606 278.563 271.476C278.093 271.286 277.573 271.257 277.084 271.393L247.467 278.949L244.193 266.137C244.122 265.86 243.998 265.6 243.827 265.372C243.656 265.143 243.441 264.951 243.196 264.805C242.95 264.659 242.679 264.563 242.396 264.523C242.113 264.482 241.826 264.498 241.549 264.568C241.349 264.621 222.076 269.727 218.413 270.713Z" fill="#6C63FF"/>
<path d="M217.903 270.744L217.832 270.466L241.533 264.417C242.159 264.258 242.822 264.354 243.378 264.684C243.933 265.013 244.335 265.549 244.496 266.175L247.703 278.736L277.156 271.219C277.782 271.06 278.446 271.156 279.002 271.485C279.557 271.815 279.959 272.351 280.12 272.977L284.53 290.25L341.342 275.75L341.413 276.028L284.323 290.598L279.842 273.048C279.772 272.774 279.649 272.517 279.48 272.291C279.311 272.065 279.099 271.875 278.856 271.731C278.613 271.587 278.344 271.492 278.065 271.452C277.785 271.412 277.501 271.427 277.227 271.497L247.497 279.085L244.218 266.246C244.077 265.694 243.722 265.221 243.232 264.93C242.741 264.639 242.156 264.555 241.604 264.695L217.903 270.744Z" fill="#3F3D56"/>
<path d="M245.398 263.284C246.507 263.284 247.405 262.386 247.405 261.278C247.405 260.17 246.507 259.272 245.398 259.272C244.29 259.272 243.392 260.17 243.392 261.278C243.392 262.386 244.29 263.284 245.398 263.284Z" fill="#3F3D56"/>
<path d="M280.675 269.547C281.784 269.547 282.682 268.649 282.682 267.541C282.682 266.433 281.784 265.535 280.675 265.535C279.567 265.535 278.669 266.433 278.669 267.541C278.669 268.649 279.567 269.547 280.675 269.547Z" fill="#3F3D56"/>
<path d="M342.134 274.378C343.242 274.378 344.141 273.48 344.141 272.372C344.141 271.264 343.242 270.366 342.134 270.366C341.026 270.366 340.128 271.264 340.128 272.372C340.128 273.48 341.026 274.378 342.134 274.378Z" fill="#3F3D56"/>
<path d="M184.805 274.752C184.203 274.269 183.715 273.659 183.374 272.967C183.033 272.275 182.848 271.517 182.833 270.745C182.817 269.974 182.97 269.209 183.282 268.503C183.594 267.797 184.057 267.169 184.638 266.661L177.616 249.271L187.171 251.201L192.375 267.418C193.163 268.451 193.544 269.737 193.447 271.032C193.35 272.328 192.781 273.542 191.848 274.446C190.915 275.35 189.683 275.881 188.385 275.937C187.087 275.993 185.813 275.571 184.805 274.752Z" fill="#FFB8B8"/>
<path d="M184.689 267.217C184.171 267.254 183.656 267.12 183.222 266.836C182.787 266.552 182.459 266.132 182.287 265.643L170.918 233.253L168.488 200.94C168.421 200.051 168.532 199.157 168.813 198.311C169.095 197.465 169.542 196.683 170.128 196.011C170.715 195.339 171.429 194.791 172.229 194.397C173.03 194.004 173.901 193.773 174.791 193.719C175.681 193.666 176.573 193.789 177.416 194.083C178.258 194.377 179.033 194.835 179.696 195.431C180.36 196.027 180.898 196.749 181.28 197.555C181.662 198.361 181.879 199.235 181.92 200.126L183.28 229.636L192.203 262.289C192.357 262.862 192.29 263.472 192.017 263.998C191.743 264.524 191.282 264.929 190.725 265.133L185.316 267.082C185.114 267.155 184.903 267.201 184.689 267.217Z" fill="#3F3D56"/>
<path d="M395.482 238.518C395.27 238.425 395.073 238.302 394.896 238.152L384.323 229.248C384.069 229.034 383.862 228.77 383.716 228.472C383.569 228.174 383.486 227.849 383.471 227.517C383.457 227.185 383.511 226.853 383.631 226.544C383.751 226.234 383.935 225.953 384.169 225.717L393.763 216.086C394.166 215.678 394.702 215.429 395.274 215.383C395.845 215.338 396.414 215.499 396.876 215.838L404.132 221.105C404.584 221.434 404.908 221.911 405.047 222.453C405.186 222.995 405.131 223.569 404.892 224.075L398.615 237.342C398.348 237.907 397.871 238.345 397.287 238.565C396.702 238.784 396.055 238.767 395.482 238.518Z" fill="#6C63FF"/>
<path d="M436.719 364.45L430.405 366.167L420.773 342.635L430.093 340.1L436.719 364.45Z" fill="#FFB8B8"/>
<path d="M425.277 365.625L437.582 362.278L439.668 369.944L419.822 375.342L419.788 375.215C419.244 373.215 419.516 371.082 420.546 369.283C421.575 367.485 423.277 366.169 425.277 365.625Z" fill="#2F2E41"/>
<path d="M382.738 369.267L376.194 369.266L373.081 344.031L382.739 344.032L382.738 369.267Z" fill="#FFB8B8"/>
<path d="M371.388 367.397H384.14V375.341H363.573V375.21C363.573 373.138 364.397 371.15 365.862 369.685C367.328 368.22 369.315 367.397 371.388 367.397Z" fill="#2F2E41"/>
<path d="M392.596 202.653C399.837 202.653 405.706 196.785 405.706 189.546C405.706 182.307 399.837 176.439 392.596 176.439C385.355 176.439 379.486 182.307 379.486 189.546C379.486 196.785 385.355 202.653 392.596 202.653Z" fill="#FFB8B8"/>
<path d="M382.337 351.274H373.394C372.783 351.273 372.195 351.04 371.75 350.621C371.304 350.203 371.034 349.631 370.995 349.021C368.33 306.67 369.889 276.291 375.9 253.417C375.926 253.317 375.959 253.218 375.997 253.122L376.476 251.925C376.653 251.479 376.961 251.096 377.359 250.827C377.757 250.557 378.226 250.414 378.707 250.416H397.097C397.443 250.415 397.786 250.49 398.1 250.635C398.415 250.78 398.695 250.991 398.92 251.254L401.418 254.168C401.467 254.225 401.513 254.282 401.556 254.343C412.82 270.046 422.914 300.746 434.604 342.01C434.777 342.609 434.708 343.253 434.413 343.803C434.118 344.352 433.62 344.765 433.025 344.953L423.414 348.028C422.862 348.202 422.267 348.172 421.735 347.943C421.204 347.715 420.772 347.303 420.518 346.784L395.579 295.07C395.404 294.708 395.118 294.413 394.763 294.226C394.407 294.04 394.001 293.974 393.604 294.036C393.208 294.099 392.842 294.288 392.561 294.574C392.28 294.861 392.099 295.23 392.045 295.628L384.717 349.198C384.637 349.773 384.352 350.299 383.915 350.68C383.477 351.061 382.917 351.272 382.337 351.274Z" fill="#2F2E41"/>
<path d="M400.41 254.381C400.385 254.381 400.36 254.38 400.334 254.38L377.997 253.675C377.422 253.659 376.873 253.437 376.449 253.049C376.025 252.662 375.754 252.135 375.686 251.565C372.854 228.649 380.62 222.51 384.091 220.935C384.381 220.804 384.632 220.6 384.82 220.344C385.008 220.087 385.127 219.787 385.165 219.471L385.465 217.069C385.516 216.645 385.68 216.242 385.94 215.903C391.381 208.856 398.811 206.599 402.755 205.882C403.075 205.824 403.404 205.832 403.72 205.906C404.037 205.979 404.335 206.116 404.598 206.308C404.86 206.5 405.08 206.743 405.245 207.023C405.41 207.303 405.517 207.614 405.558 207.936L406.008 211.385C406.054 211.714 406.185 212.025 406.389 212.288C417.737 227.119 405.095 249.017 402.445 253.256C402.229 253.6 401.929 253.884 401.573 254.08C401.217 254.277 400.817 254.381 400.41 254.381Z" fill="#6C63FF"/>
<path d="M407.021 181.395C406.047 178.444 405.328 175.414 404.872 172.34C404.729 170.551 405.187 168.625 406.491 167.391C408.931 165.08 413.076 166.18 415.627 168.367C419.314 171.528 421.153 176.385 421.848 181.191C422.543 185.997 422.237 190.884 422.405 195.737C422.572 200.59 423.266 205.58 425.741 209.758C428.216 213.936 432.808 217.143 437.652 216.788C439.607 216.682 441.464 215.895 442.899 214.564C443.604 213.894 444.138 213.065 444.456 212.145C444.774 211.226 444.867 210.244 444.727 209.282C447.203 213.714 445.948 219.721 442.255 223.205C438.562 226.69 432.882 227.675 428.027 226.187C423.172 224.699 419.176 220.969 416.79 216.489C414.403 212.008 413.528 206.832 413.655 201.757C413.752 197.86 414.415 193.931 413.756 190.089C413.098 186.246 410.692 182.345 406.899 181.44L407.021 181.395Z" fill="#2F2E41"/>
<path d="M389.988 186.446C389.341 188.606 386.868 189.937 384.643 189.572C383.535 189.342 382.51 188.816 381.678 188.051C380.845 187.285 380.234 186.309 379.912 185.224C379.301 183.028 379.551 180.681 380.611 178.663C381.196 177.453 382.013 176.37 383.017 175.477C384.02 174.583 385.19 173.896 386.46 173.455C387.736 173.032 389.096 172.922 390.424 173.134C391.752 173.346 393.009 173.874 394.09 174.674C394.206 174.189 394.448 173.743 394.793 173.383C395.137 173.022 395.572 172.76 396.052 172.623C397.017 172.363 398.037 172.378 398.995 172.667C401.754 173.453 404.146 175.192 405.744 177.575C407.321 179.951 408.365 182.641 408.802 185.458C409.555 189.684 409.278 194.301 406.904 197.878C404.53 201.454 399.673 203.566 395.733 201.861C395.488 200.605 396.07 199.341 396.743 198.253C397.416 197.165 398.214 196.105 398.473 194.852C398.732 193.599 398.236 192.066 397.024 191.656C395.989 191.307 394.887 191.873 393.797 191.942C393.178 191.98 392.56 191.856 392.004 191.58C391.449 191.305 390.976 190.888 390.632 190.373C390.289 189.857 390.087 189.259 390.047 188.641C390.007 188.022 390.131 187.404 390.405 186.848L389.988 186.446Z" fill="#2F2E41"/>
<path d="M356.761 240.441C356.978 240.642 357.179 240.859 357.361 241.091L383.754 239.038L386.537 233.241L395.835 236.297L390.806 250.044L357.561 247.814C356.904 248.742 355.98 249.449 354.911 249.84C353.843 250.231 352.681 250.287 351.58 250.002C350.478 249.716 349.49 249.102 348.747 248.242C348.003 247.381 347.539 246.314 347.416 245.184C347.294 244.053 347.518 242.912 348.06 241.912C348.602 240.912 349.436 240.1 350.45 239.586C351.465 239.071 352.612 238.877 353.739 239.03C354.866 239.183 355.921 239.675 356.761 240.441Z" fill="#FFB8B8"/>
<path d="M395.692 245.454C395.47 245.39 395.257 245.295 395.062 245.171L383.374 237.791C383.093 237.613 382.852 237.38 382.666 237.104C382.48 236.829 382.353 236.518 382.294 236.191C382.234 235.865 382.243 235.529 382.32 235.206C382.397 234.883 382.54 234.579 382.74 234.314L390.932 223.465C391.275 223.006 391.772 222.686 392.332 222.563C392.892 222.44 393.478 222.523 393.982 222.795L401.888 227.025C402.381 227.289 402.767 227.717 402.978 228.236C403.189 228.754 403.213 229.329 403.045 229.863L398.636 243.862C398.448 244.458 398.036 244.957 397.486 245.254C396.937 245.551 396.293 245.623 395.692 245.454Z" fill="#6C63FF"/>
</g>
<g clip-path="url(#clip4_3_431)">
<path d="M552.941 483.042L439.984 461.979L456.198 375.025L569.155 396.088L552.941 483.042Z" fill="white"/>
<path d="M552.941 483.042L439.984 461.979L456.198 375.025L569.155 396.088L552.941 483.042ZM441.965 460.622L551.583 481.062L567.175 397.446L457.556 377.005L441.965 460.622Z" fill="#E5E5E5"/>
<path d="M468.652 445.173L460.1 443.579C459.869 443.535 459.664 443.402 459.531 443.208C459.397 443.013 459.347 442.774 459.39 442.543L461.588 430.753C461.631 430.522 461.765 430.317 461.959 430.184C462.153 430.051 462.393 430 462.624 430.043L471.176 431.637C471.408 431.681 471.613 431.814 471.746 432.009C471.879 432.203 471.93 432.442 471.887 432.674L469.689 444.463C469.645 444.695 469.512 444.899 469.318 445.033C469.123 445.166 468.884 445.217 468.652 445.174L468.652 445.173Z" fill="#E6E6E6"/>
<path d="M484.248 448.082L475.696 446.487C475.465 446.443 475.26 446.31 475.127 446.116C474.993 445.921 474.943 445.682 474.986 445.451L479.269 422.479C479.312 422.248 479.446 422.043 479.64 421.91C479.834 421.776 480.074 421.726 480.305 421.769L488.857 423.363C489.089 423.407 489.294 423.54 489.427 423.735C489.56 423.929 489.611 424.168 489.568 424.4L485.285 447.371C485.241 447.602 485.108 447.807 484.913 447.941C484.719 448.074 484.48 448.124 484.248 448.082Z" fill="#E6E6E6"/>
<path d="M499.844 450.99L491.292 449.395C491.061 449.352 490.856 449.218 490.722 449.024C490.589 448.83 490.538 448.59 490.581 448.359L492.78 436.569C492.823 436.338 492.957 436.133 493.151 436C493.345 435.867 493.584 435.816 493.816 435.859L502.368 437.454C502.6 437.497 502.805 437.631 502.938 437.825C503.071 438.019 503.122 438.258 503.079 438.49L500.881 450.279C500.837 450.511 500.704 450.715 500.509 450.849C500.315 450.982 500.076 451.033 499.844 450.99Z" fill="#E6E6E6"/>
<path d="M515.44 453.898L506.888 452.303C506.661 452.266 506.458 452.14 506.323 451.953C506.188 451.766 506.133 451.534 506.17 451.306L511.291 423.842C511.339 423.617 511.474 423.42 511.667 423.294C511.86 423.168 512.095 423.124 512.32 423.171L520.872 424.766C521.099 424.803 521.303 424.929 521.437 425.116C521.572 425.303 521.627 425.535 521.59 425.763L516.469 453.227C516.421 453.452 516.286 453.649 516.093 453.775C515.9 453.901 515.666 453.945 515.44 453.898Z" fill="#E6E6E6"/>
<path d="M531.036 456.806L522.484 455.211C522.253 455.168 522.048 455.034 521.914 454.84C521.781 454.646 521.73 454.407 521.773 454.175L528.361 418.845C528.405 418.613 528.538 418.408 528.733 418.275C528.927 418.142 529.166 418.091 529.398 418.134L537.95 419.729C538.181 419.772 538.386 419.906 538.519 420.1C538.653 420.294 538.703 420.533 538.66 420.765L532.073 456.095C532.029 456.327 531.896 456.532 531.701 456.665C531.507 456.798 531.268 456.849 531.036 456.806Z" fill="#F2F2F2"/>
<path d="M467.559 427.309C468.534 427.491 469.472 426.848 469.653 425.872C469.835 424.897 469.192 423.96 468.217 423.778C467.242 423.596 466.304 424.239 466.122 425.214C465.941 426.189 466.584 427.127 467.559 427.309Z" fill="#090814"/>
<path d="M485.295 418.741C486.27 418.922 487.208 418.279 487.389 417.304C487.571 416.329 486.928 415.391 485.953 415.209C484.978 415.028 484.04 415.671 483.858 416.646C483.676 417.621 484.32 418.559 485.295 418.741Z" fill="#090814"/>
<path d="M498.751 433.125C499.726 433.307 500.664 432.664 500.845 431.689C501.027 430.714 500.384 429.776 499.409 429.594C498.434 429.412 497.496 430.055 497.314 431.03C497.133 432.005 497.776 432.943 498.751 433.125Z" fill="#090814"/>
<path d="M517.529 418.966C518.504 419.148 519.442 418.504 519.624 417.529C519.806 416.554 519.163 415.616 518.188 415.435C517.213 415.253 516.275 415.896 516.093 416.871C515.911 417.846 516.554 418.784 517.529 418.966Z" fill="#090814"/>
<path d="M534.332 415.4C535.307 415.582 536.245 414.939 536.427 413.964C536.609 412.989 535.966 412.051 534.991 411.869C534.015 411.687 533.078 412.33 532.896 413.305C532.714 414.28 533.357 415.218 534.332 415.4Z" fill="#090814"/>
<path d="M499.043 431.762L485.593 417.138L468.021 425.812L467.756 425.276L485.731 416.403L499.117 430.959L517.733 416.922L517.8 416.909L534.567 413.533L534.685 414.12L517.984 417.48L499.043 431.762Z" fill="#090814"/>
<path d="M541.405 498.536L538.748 498.04L539.395 487.558L543.316 488.289L541.405 498.536Z" fill="#FFB6B6"/>
<path d="M539.998 453.396L537.189 476.826L539.215 494.065L544.229 495.276L544.82 474.844L548.143 461.817C548.143 461.817 552.786 459.64 551.182 455.678L539.998 453.396Z" fill="#090814"/>
<path d="M543.138 498.859L540.483 498.364L541.13 487.882L545.05 488.613L543.138 498.859Z" fill="#FFB6B6"/>
<path d="M541.549 501.322L534.207 499.953C533.576 499.834 532.98 499.576 532.461 499.197L531.229 498.293C531.093 498.193 530.991 498.055 530.936 497.896C530.881 497.737 530.876 497.564 530.921 497.402C530.967 497.24 531.061 497.096 531.19 496.989C531.32 496.882 531.479 496.816 531.647 496.802L534.584 496.55L539.828 494.929L539.828 494.948C539.833 495.417 539.845 496.127 539.854 496.17C540.239 496.823 540.695 497.175 541.206 497.217C542.099 497.291 542.871 496.388 542.879 496.379L542.886 496.371L542.895 496.373C542.983 496.394 543.066 496.434 543.137 496.492C543.207 496.549 543.263 496.622 543.301 496.705C543.444 497.042 543.236 497.485 543.204 497.551C543.399 497.829 543.263 499.159 543.252 499.265C543.531 499.698 543.629 500.08 543.547 500.405C543.499 500.56 543.418 500.702 543.311 500.824C543.204 500.946 543.072 501.043 542.924 501.11C542.504 501.333 542.02 501.406 541.552 501.317L541.549 501.322Z" fill="#090814" stroke="#06060F" stroke-width="1.5" stroke-miterlimit="10"/>
<path d="M563.672 423.099C563.841 422.193 563.755 421.258 563.425 420.398C563.094 419.538 562.532 418.787 561.8 418.227C561.068 417.668 560.195 417.322 559.279 417.228C558.362 417.134 557.438 417.296 556.608 417.696C555.778 418.096 555.075 418.718 554.577 419.493C554.079 420.269 553.806 421.167 553.788 422.088C553.77 423.009 554.007 423.917 554.474 424.712C554.94 425.506 555.618 426.156 556.431 426.588L556.212 433.026L561.792 429.902C561.295 428.913 560.933 427.861 560.716 426.776C561.474 426.455 562.142 425.951 562.657 425.31C563.173 424.668 563.522 423.909 563.672 423.099Z" fill="#FFB9B9"/>
<path d="M541.731 453.719L538.923 477.15L540.904 494.499L544.82 495.393L546.553 475.168L549.876 462.14C549.876 462.14 554.519 459.963 552.915 456.002L541.731 453.719Z" fill="#090814"/>
<path d="M549.213 458.965C544.689 458.121 539.88 454.364 539.602 454.144L539.525 454.083L554.846 429.531L560.442 428.06C560.872 427.947 561.326 427.951 561.754 428.072C562.183 428.192 562.572 428.425 562.881 428.746C563.189 429.067 563.407 429.464 563.511 429.898C563.615 430.331 563.602 430.784 563.472 431.21L558.018 449.135L554.12 458.219L554.093 458.237C552.701 459.179 550.979 459.294 549.213 458.965Z" fill="#6C63FF"/>
<path d="M535.891 438.337C536.192 438.216 536.516 438.163 536.839 438.181C537.163 438.199 537.479 438.288 537.764 438.442C538.05 438.595 538.298 438.809 538.492 439.069C538.686 439.328 538.82 439.628 538.886 439.945L546.697 440.964L544.02 444.061L537.014 442.618C536.473 442.693 535.924 442.567 535.471 442.264C535.017 441.961 534.69 441.503 534.552 440.975C534.414 440.447 534.474 439.887 534.721 439.401C534.968 438.915 535.385 438.536 535.892 438.336L535.891 438.337Z" fill="#FFB6B6"/>
<path d="M550.135 446.621L542.424 444.979L543.48 439.872L547.361 439.389L554.942 432.081C555.322 431.715 555.771 431.429 556.263 431.24C556.755 431.051 557.28 430.963 557.807 430.98C558.334 430.997 558.852 431.12 559.33 431.341C559.809 431.562 560.238 431.876 560.593 432.266C560.948 432.655 561.221 433.112 561.397 433.609C561.572 434.106 561.646 434.633 561.615 435.159C561.583 435.685 561.446 436.2 561.213 436.672C560.979 437.144 560.653 437.565 560.253 437.909L550.135 446.621Z" fill="#6C63FF"/>
<path d="M553.741 416.034C554.36 415.598 555.101 415.37 555.858 415.382C556.602 415.361 557.395 415.46 558.051 415.118C558.797 414.721 559.267 413.79 560.105 413.721C560.465 413.716 560.819 413.811 561.128 413.997C562.33 414.619 563.321 415.584 563.974 416.77C564.118 417.101 564.324 417.402 564.582 417.657C564.744 417.764 564.901 417.88 565.051 418.004C565.207 418.183 565.317 418.399 565.369 418.631C565.728 419.898 565.612 421.253 565.044 422.442C564.707 423.144 564.22 423.762 563.868 424.465C563.517 425.169 562.272 426.4 562.108 426.006C561.943 425.612 561.709 425.23 561.66 424.801C561.563 423.959 561.934 423.198 561.414 422.527C561.092 422.113 560.437 421.753 560.092 422.146C559.956 422.298 559.923 422.516 559.801 422.677C559.56 422.991 559.04 422.966 558.742 422.704C558.46 422.42 558.295 422.041 558.281 421.641C558.094 419.839 557.434 418.604 555.472 418.993C554.74 419.14 553.904 419.174 553.337 418.584C552.589 417.808 552.992 416.621 553.741 416.034Z" fill="#090814"/>
<path d="M533.545 460.188L524.992 458.594C524.761 458.55 524.556 458.417 524.423 458.223C524.29 458.028 524.239 457.789 524.282 457.557L530.87 422.227C530.913 421.996 531.047 421.791 531.241 421.658C531.435 421.525 531.674 421.474 531.906 421.517L540.458 423.111C540.69 423.155 540.895 423.288 541.028 423.483C541.161 423.677 541.212 423.916 541.169 424.148L534.581 459.478C534.537 459.709 534.404 459.914 534.21 460.047C534.015 460.181 533.776 460.231 533.545 460.188Z" fill="#6C63FF"/>
<path d="M535.109 441.33C535.41 441.209 535.734 441.156 536.057 441.174C536.381 441.193 536.696 441.281 536.982 441.435C537.267 441.588 537.516 441.802 537.709 442.062C537.903 442.322 538.038 442.621 538.103 442.938L545.914 443.957L543.237 447.054L536.231 445.611C535.69 445.686 535.141 445.56 534.688 445.257C534.234 444.954 533.907 444.496 533.769 443.968C533.631 443.44 533.691 442.88 533.938 442.394C534.185 441.908 534.602 441.529 535.109 441.329L535.109 441.33Z" fill="#FFB6B6"/>
<path d="M549.353 449.615L541.642 447.972L542.698 442.866L546.579 442.383L554.161 435.074C554.54 434.707 554.989 434.42 555.482 434.23C555.974 434.039 556.5 433.95 557.027 433.967C557.555 433.983 558.074 434.106 558.553 434.326C559.033 434.547 559.463 434.862 559.819 435.252C560.174 435.643 560.448 436.1 560.623 436.598C560.799 437.096 560.872 437.624 560.84 438.151C560.807 438.678 560.67 439.193 560.434 439.666C560.199 440.138 559.872 440.559 559.471 440.902L549.353 449.615Z" fill="#6C63FF"/>
<path d="M554.147 503.895L520.904 497.697C520.856 497.688 520.835 497.583 520.857 497.463C520.88 497.343 520.937 497.253 520.985 497.262L554.228 503.461C554.276 503.47 554.297 503.574 554.274 503.694C554.252 503.814 554.194 503.904 554.147 503.895Z" fill="#CACACA"/>
</g>
<defs>
<clipPath id="clip0_3_431">
<rect width="200" height="119" fill="white" transform="translate(0 431.359) rotate(-12.1258)"/>
</clipPath>
<clipPath id="clip1_3_431">
<rect width="100" height="77" fill="white" transform="translate(32.5673 77.3876) rotate(-31.1017)"/>
</clipPath>
<clipPath id="clip2_3_431">
<rect width="120" height="92.8295" fill="white" transform="translate(444.438) rotate(25.0245)"/>
</clipPath>
<clipPath id="clip3_3_431">
<rect width="400" height="362" fill="white" transform="translate(93.2674 14.0254)"/>
</clipPath>
<clipPath id="clip4_3_431">
<rect width="120" height="108.732" fill="white" transform="translate(456.198 375.025) rotate(10.5624)"/>
</clipPath>
</defs>
</svg>
